<svg width="162" height="45" viewBox="0 0 162 45" fill="none" xmlns="http://www.w3.org/2000/svg">
<path d="M8.38044 32.1969C7.08681 32.1969 5.92443 31.9719 4.89328 31.5219C3.88087 31.0532 3.08408 30.4158 2.50288 29.6096C1.92169 28.7847 1.62172 27.8379 1.60297 26.7693H4.33083C4.42457 27.6879 4.79953 28.466 5.45572 29.1034C6.13066 29.7221 7.10556 30.0314 8.38044 30.0314C9.59907 30.0314 10.5552 29.7315 11.2489 29.1315C11.9613 28.5128 12.3176 27.7254 12.3176 26.7693C12.3176 26.0193 12.1113 25.41 11.6989 24.9413C11.2864 24.4726 10.7708 24.1164 10.1521 23.8727C9.53345 23.6289 8.69916 23.3665 7.64926 23.0852C6.35563 22.7478 5.31511 22.4103 4.52769 22.0728C3.75901 21.7354 3.09345 21.2104 2.531 20.498C1.98731 19.7668 1.71546 18.7919 1.71546 17.5733C1.71546 16.5046 1.98731 15.5578 2.531 14.7329C3.0747 13.908 3.834 13.2706 4.80891 12.8206C5.80256 12.3707 6.93683 12.1457 8.2117 12.1457C10.049 12.1457 11.5489 12.605 12.7113 13.5237C13.8924 14.4423 14.558 15.661 14.7079 17.1796H11.8957C11.802 16.4296 11.4083 15.7734 10.7146 15.211C10.0209 14.6298 9.10224 14.3392 7.9586 14.3392C6.88996 14.3392 6.01817 14.6204 5.34323 15.1829C4.6683 15.7266 4.33083 16.4953 4.33083 17.4889C4.33083 18.2013 4.52769 18.7825 4.9214 19.2325C5.33386 19.6824 5.83068 20.0293 6.41188 20.273C7.01182 20.498 7.84611 20.7605 8.91476 21.0604C10.2084 21.4167 11.2489 21.7729 12.0363 22.1291C12.8238 22.4666 13.4987 23.0009 14.0611 23.7321C14.6236 24.4445 14.9048 25.4194 14.9048 26.6568C14.9048 27.6129 14.6517 28.5128 14.1455 29.3565C13.6393 30.2002 12.8894 30.8845 11.8957 31.4094C10.9021 31.9344 9.73031 32.1969 8.38044 32.1969Z" fill="white"/>
<path d="M44.6444 23.2415C44.2242 23.2415 43.9029 22.9201 43.9029 22.4999C43.9029 16.7656 39.2561 12.1189 33.5218 12.1189C27.7875 12.1189 23.1407 16.7656 23.1407 22.4999C23.1407 22.9201 22.8194 23.2415 22.3992 23.2415C21.979 23.2415 21.6577 22.9201 21.6577 22.4999C21.6577 15.95 26.9718 10.6359 33.5218 10.6359C40.0718 10.6359 45.3859 15.95 45.3859 22.4999C45.3859 22.9201 45.0646 23.2415 44.6444 23.2415ZM44.6444 26.949H22.3992C21.979 26.949 21.6577 26.6277 21.6577 26.2075C21.6577 25.7873 21.979 25.466 22.3992 25.466H44.6444C45.0646 25.466 45.3859 25.7873 45.3859 26.2075C45.3859 26.6277 45.0646 26.949 44.6444 26.949ZM39.701 30.6565H27.3426C26.9224 30.6565 26.6011 30.3352 26.6011 29.915C26.6011 29.4948 26.9224 29.1735 27.3426 29.1735H39.701C40.1212 29.1735 40.4425 29.4948 40.4425 29.915C40.4425 30.3352 40.1212 30.6565 39.701 30.6565ZM34.7576 34.364H32.286C31.8658 34.364 31.5445 34.0427 31.5445 33.6225C31.5445 33.2023 31.8658 32.881 32.286 32.881H34.7576C35.1778 32.881 35.4991 33.2023 35.4991 33.6225C35.4991 34.0427 35.1778 34.364 34.7576 34.364Z" fill="#FFB400"/>
<path d="M54.7682 11.1895V32H52.2091V11.1895H54.7682ZM59.7204 24.2383C59.7204 22.6634 60.0391 21.2854 60.6766 20.1043C61.314 18.9044 62.1858 17.9764 63.2919 17.3202C64.4168 16.664 65.6636 16.3359 67.0322 16.3359C68.3821 16.3359 69.5538 16.6265 70.5475 17.2077C71.5411 17.7889 72.2817 18.5201 72.7691 19.4012V16.589H75.3564V32H72.7691V29.1315C72.2629 30.0314 71.5036 30.7814 70.4912 31.3813C69.4976 31.9625 68.3352 32.2531 67.0041 32.2531C65.6354 32.2531 64.3981 31.9156 63.2919 31.2407C62.1858 30.5658 61.314 29.619 60.6766 28.4003C60.0391 27.1817 59.7204 25.7944 59.7204 24.2383ZM72.7691 24.2664C72.7691 23.104 72.5348 22.0916 72.0661 21.2292C71.5974 20.3668 70.9599 19.7106 70.1538 19.2606C69.3663 18.7919 68.4945 18.5576 67.5384 18.5576C66.5822 18.5576 65.7104 18.7825 64.923 19.2325C64.1356 19.6824 63.5075 20.3386 63.0388 21.201C62.5701 22.0635 62.3358 23.0759 62.3358 24.2383C62.3358 25.4194 62.5701 26.4505 63.0388 27.3317C63.5075 28.1941 64.1356 28.8597 64.923 29.3284C65.7104 29.7783 66.5822 30.0033 67.5384 30.0033C68.4945 30.0033 69.3663 29.7783 70.1538 29.3284C70.9599 28.8597 71.5974 28.1941 72.0661 27.3317C72.5348 26.4505 72.7691 25.4288 72.7691 24.2664ZM83.7869 19.0919C84.2369 18.2107 84.8743 17.5264 85.6992 17.039C86.5429 16.5515 87.5647 16.3078 88.7646 16.3078V18.9513H88.0896C85.2211 18.9513 83.7869 20.5074 83.7869 23.6196V32H81.2278V16.589H83.7869V19.0919ZM92.3093 22.1853C92.3093 20.273 92.7405 18.5576 93.6029 17.039C94.4653 15.5016 95.6371 14.3017 97.1182 13.4393C98.618 12.5769 100.277 12.1457 102.096 12.1457C104.233 12.1457 106.099 12.6613 107.692 13.6924C109.286 14.7236 110.448 16.1859 111.179 18.0795H108.114C107.57 16.8983 106.783 15.9891 105.752 15.3516C104.739 14.7142 103.521 14.3955 102.096 14.3955C100.727 14.3955 99.4992 14.7142 98.4118 15.3516C97.3244 15.9891 96.4714 16.8983 95.8527 18.0795C95.234 19.2419 94.9246 20.6105 94.9246 22.1853C94.9246 23.7414 95.234 25.11 95.8527 26.2912C96.4714 27.4536 97.3244 28.3535 98.4118 28.9909C99.4992 29.6284 100.727 29.9471 102.096 29.9471C103.521 29.9471 104.739 29.6377 105.752 29.019C106.783 28.3816 107.57 27.4723 108.114 26.2912H111.179C110.448 28.166 109.286 29.619 107.692 30.6501C106.099 31.6625 104.233 32.1687 102.096 32.1687C100.277 32.1687 98.618 31.7469 97.1182 30.9032C95.6371 30.0408 94.4653 28.8503 93.6029 27.3317C92.7405 25.8131 92.3093 24.0976 92.3093 22.1853ZM115.579 24.2383C115.579 22.6634 115.898 21.2854 116.536 20.1043C117.173 18.9044 118.045 17.9764 119.151 17.3202C120.276 16.664 121.523 16.3359 122.891 16.3359C124.241 16.3359 125.413 16.6265 126.406 17.2077C127.4 17.7889 128.141 18.5201 128.628 19.4012V16.589H131.215V32H128.628V29.1315C128.122 30.0314 127.363 30.7814 126.35 31.3813C125.357 31.9625 124.194 32.2531 122.863 32.2531C121.494 32.2531 120.257 31.9156 119.151 31.2407C118.045 30.5658 117.173 29.619 116.536 28.4003C115.898 27.1817 115.579 25.7944 115.579 24.2383ZM128.628 24.2664C128.628 23.104 128.394 22.0916 127.925 21.2292C127.456 20.3668 126.819 19.7106 126.013 19.2606C125.225 18.7919 124.354 18.5576 123.397 18.5576C122.441 18.5576 121.569 18.7825 120.782 19.2325C119.995 19.6824 119.366 20.3386 118.898 21.201C118.429 22.0635 118.195 23.0759 118.195 24.2383C118.195 25.4194 118.429 26.4505 118.898 27.3317C119.366 28.1941 119.995 28.8597 120.782 29.3284C121.569 29.7783 122.441 30.0033 123.397 30.0033C124.354 30.0033 125.225 29.7783 126.013 29.3284C126.819 28.8597 127.456 28.1941 127.925 27.3317C128.394 26.4505 128.628 25.4288 128.628 24.2664ZM139.646 11.1895V32H137.087V11.1895H139.646ZM144.598 24.2664C144.598 22.6728 144.917 21.2854 145.554 20.1043C146.192 18.9044 147.073 17.9764 148.198 17.3202C149.341 16.664 150.644 16.3359 152.107 16.3359C154 16.3359 155.556 16.7952 156.775 17.7139C158.012 18.6325 158.828 19.9074 159.222 21.5385H156.466C156.203 20.6011 155.688 19.8606 154.919 19.3169C154.169 18.7732 153.232 18.5013 152.107 18.5013C150.644 18.5013 149.463 19.0075 148.563 20.0199C147.663 21.0136 147.213 22.4291 147.213 24.2664C147.213 26.1224 147.663 27.5567 148.563 28.5691C149.463 29.5815 150.644 30.0877 152.107 30.0877C153.232 30.0877 154.169 29.8252 154.919 29.3003C155.669 28.7753 156.184 28.0254 156.466 27.0505H159.222C158.809 28.6253 157.984 29.8908 156.747 30.847C155.509 31.7844 153.963 32.2531 152.107 32.2531C150.644 32.2531 149.341 31.925 148.198 31.2688C147.073 30.6126 146.192 29.6846 145.554 28.4847C144.917 27.2848 144.598 25.8787 144.598 24.2664Z" fill="white"/>
</svg>
