<svg width="733" height="733" viewBox="0 0 733 733" fill="none" xmlns="http://www.w3.org/2000/svg">
<g clip-path="url(#clip0_5_942)">
<path d="M353.334 531.181C350.704 531.181 348.195 529.639 347.058 527.044C345.519 523.53 347.079 519.415 350.543 517.854C362.113 512.637 368.121 500.153 368.398 480.747C368.614 465.588 365.991 388.165 365.965 387.385C365.834 383.542 368.799 380.319 372.587 380.186C376.376 380.06 379.553 383.061 379.683 386.905C379.792 390.105 382.345 465.451 382.124 480.948C381.673 512.481 367.733 525.342 356.118 530.578C355.242 530.975 354.293 531.18 353.334 531.181Z" fill="#04294F"/>
<path d="M365.928 502.289C365.968 502.767 365.985 503.175 366.152 503.629C366.315 504.073 366.502 504.493 366.768 504.875C367.305 505.644 367.968 506.313 368.729 506.853C369.515 507.413 370.501 507.908 371.437 508.044C372.428 508.189 373.401 508.474 374.408 508.367C375.017 508.303 375.167 507.419 374.554 507.196C373.735 506.898 372.86 506.82 372.043 506.509C371.247 506.206 370.445 505.879 369.705 505.435C369.067 505.055 368.5 504.565 368.028 503.987C367.565 503.417 367.091 502.725 366.807 502.032C366.619 501.575 365.888 501.799 365.928 502.289ZM360.895 512.037C360.935 512.515 360.952 512.922 361.119 513.377C361.281 513.821 361.468 514.241 361.734 514.623C362.271 515.392 362.935 516.061 363.696 516.6C364.481 517.161 365.468 517.655 366.403 517.792C367.394 517.937 368.368 518.222 369.374 518.115C369.983 518.05 370.134 517.167 369.521 516.944C368.701 516.645 367.827 516.567 367.009 516.256C366.214 515.954 365.412 515.627 364.672 515.182C364.034 514.803 363.466 514.313 362.995 513.735C362.532 513.165 362.058 512.473 361.773 511.779C361.586 511.323 360.854 511.546 360.895 512.037ZM352.386 518.606C352.331 519.082 352.267 519.484 352.341 519.964C352.413 520.432 352.513 520.881 352.698 521.309C353.072 522.172 353.59 522.962 354.23 523.645C354.889 524.353 355.758 525.039 356.647 525.362C357.59 525.705 358.487 526.182 359.495 526.282C360.104 526.342 360.426 525.507 359.869 525.164C359.125 524.705 358.284 524.451 357.544 523.98C356.825 523.522 356.103 523.039 355.466 522.453C354.916 521.952 354.456 521.356 354.108 520.694C353.767 520.042 353.439 519.268 353.297 518.531C353.204 518.045 352.443 518.116 352.386 518.606ZM369.006 494.264C369.279 494.605 369.614 494.835 369.976 495.072C370.3 495.285 370.608 495.528 370.946 495.715C371.689 496.126 372.491 496.405 373.318 496.579C374.13 496.749 374.947 496.837 375.774 496.768C376.58 496.7 377.444 496.455 378.207 496.184C378.864 495.95 378.599 495.015 377.922 495.135C377.188 495.265 376.509 495.249 375.774 495.2C375.076 495.153 374.376 495.095 373.691 494.944C372.984 494.787 372.287 494.553 371.613 494.286C371.291 494.158 370.972 494.044 370.673 493.863C370.357 493.672 370.072 493.46 369.739 493.298C369.104 492.991 368.568 493.719 369.006 494.264ZM369.909 479.05C369.268 479.858 370.995 480.852 371.644 481.221C372.62 481.777 373.728 482.104 374.892 482.2C375.472 482.249 376.056 482.223 376.63 482.14C377.228 482.055 377.706 481.855 378.25 481.65C379.311 481.251 380.231 480.65 380.822 479.788C381.103 479.379 380.508 478.784 380.011 479.096C379.266 479.563 378.462 480.043 377.585 480.307C377.169 480.432 376.661 480.488 376.217 480.537C375.744 480.592 375.266 480.597 374.792 480.553C373.899 480.464 373.024 480.208 372.262 479.802C371.703 479.504 370.547 478.245 369.909 479.05ZM369.909 467.446C369.268 468.253 370.995 469.248 371.644 469.617C372.62 470.172 373.728 470.499 374.892 470.596C375.472 470.644 376.056 470.618 376.63 470.536C377.228 470.45 377.706 470.251 378.25 470.046C379.311 469.646 380.231 469.045 380.822 468.184C381.103 467.775 380.508 467.18 380.011 467.492C379.266 467.959 378.462 468.439 377.585 468.703C377.169 468.827 376.661 468.883 376.217 468.932C375.744 468.987 375.266 468.993 374.792 468.949C373.899 468.859 373.024 468.604 372.262 468.198C371.703 467.9 370.547 466.64 369.909 467.446ZM369.846 457.604C370.427 458.3 371.53 458.52 372.373 458.693C373.315 458.886 374.283 458.998 375.245 458.962C376.192 458.926 377.108 458.788 378.017 458.519C378.493 458.377 378.944 458.189 379.404 458.002C379.865 457.815 380.252 457.535 380.666 457.257C381.125 456.95 380.849 456.118 380.274 456.312C379.466 456.585 378.613 456.801 377.777 456.978C376.925 457.158 376.029 457.267 375.159 457.297C374.307 457.328 373.446 457.317 372.601 457.195C371.757 457.073 370.894 456.731 370.04 456.858C369.682 456.912 369.659 457.379 369.846 457.604ZM369.093 446.271C369.116 447.331 370.401 447.919 371.233 448.29C372.263 448.75 373.372 449.013 374.501 449.015C375.632 449.018 376.731 448.725 377.756 448.253C378.684 447.825 379.744 447.234 380.226 446.277C380.379 445.972 380.116 445.476 379.736 445.63C378.876 445.979 378.132 446.548 377.238 446.819C376.348 447.089 375.427 447.185 374.501 447.192C373.596 447.199 372.706 447.095 371.838 446.833C371.375 446.694 370.959 446.526 370.54 446.281C370.126 446.039 369.769 445.933 369.294 446.004C369.179 446.02 369.091 446.16 369.093 446.271ZM368.673 423.554C368.7 423.789 368.735 424.049 368.857 424.257C369 424.502 369.27 424.695 369.469 424.893C369.866 425.292 370.316 425.634 370.805 425.909C371.78 426.461 372.87 426.769 373.986 426.808C375.131 426.851 376.162 426.552 377.174 426.031C378.086 425.562 379.178 424.912 379.534 423.88C379.685 423.444 379.184 423.2 378.849 423.345C378.053 423.691 377.436 424.364 376.607 424.668C375.794 424.967 374.851 425.088 373.986 425.064C373.158 425.04 372.294 424.825 371.542 424.472C371.141 424.283 370.755 424.063 370.388 423.812C370.218 423.695 370.092 423.543 369.934 423.414C369.741 423.255 369.495 423.166 369.256 423.103C368.995 423.033 368.637 423.242 368.673 423.554ZM368.673 434.694C368.7 434.929 368.735 435.189 368.857 435.397C369 435.642 369.27 435.835 369.469 436.033C369.866 436.432 370.316 436.774 370.805 437.05C371.78 437.601 372.87 437.909 373.986 437.948C375.131 437.991 376.162 437.692 377.174 437.171C378.086 436.702 379.178 436.052 379.534 435.02C379.685 434.584 379.184 434.34 378.849 434.485C378.053 434.831 377.436 435.504 376.607 435.808C375.794 436.107 374.851 436.228 373.986 436.204C373.158 436.181 372.294 435.965 371.542 435.612C371.141 435.424 370.755 435.203 370.388 434.952C370.218 434.835 370.092 434.683 369.934 434.554C369.741 434.395 369.495 434.306 369.256 434.243C368.995 434.174 368.637 434.382 368.673 434.694ZM368.673 412.413C368.7 412.649 368.735 412.909 368.857 413.117C369 413.362 369.27 413.554 369.469 413.753C369.866 414.152 370.316 414.494 370.805 414.769C371.78 415.321 372.87 415.629 373.986 415.668C375.131 415.711 376.162 415.412 377.174 414.891C378.086 414.422 379.178 413.772 379.534 412.739C379.685 412.303 379.184 412.059 378.849 412.205C378.053 412.55 377.436 413.224 376.607 413.528C375.794 413.827 374.851 413.948 373.986 413.923C373.158 413.9 372.294 413.685 371.542 413.332C371.141 413.143 370.755 412.922 370.388 412.672C370.218 412.555 370.092 412.403 369.934 412.273C369.741 412.115 369.495 412.026 369.256 411.963C368.995 411.893 368.637 412.102 368.673 412.413ZM367.758 401.273C367.785 401.509 367.819 401.769 367.942 401.977C368.085 402.222 368.355 402.414 368.553 402.613C368.951 403.012 369.401 403.354 369.89 403.629C370.865 404.181 371.955 404.489 373.071 404.528C374.216 404.57 375.247 404.271 376.259 403.751C377.171 403.282 378.263 402.631 378.619 401.599C378.77 401.163 378.269 400.919 377.934 401.065C377.138 401.41 376.52 402.084 375.692 402.388C374.879 402.687 373.936 402.807 373.071 402.783C372.242 402.76 371.379 402.545 370.627 402.192C370.225 402.003 369.84 401.782 369.473 401.531C369.302 401.414 369.177 401.263 369.019 401.133C368.826 400.975 368.58 400.886 368.341 400.823C368.08 400.753 367.722 400.962 367.758 401.273ZM367.758 390.133C367.785 390.368 367.819 390.628 367.942 390.836C368.085 391.081 368.355 391.274 368.553 391.473C368.951 391.871 369.401 392.213 369.89 392.489C370.865 393.041 371.955 393.349 373.071 393.387C374.216 393.43 375.247 393.131 376.259 392.61C377.171 392.142 378.263 391.491 378.619 390.459C378.77 390.023 378.269 389.779 377.934 389.925C377.138 390.27 376.52 390.944 375.692 391.248C374.879 391.546 373.936 391.667 373.071 391.643C372.242 391.62 371.379 391.404 370.627 391.052C370.225 390.863 369.84 390.642 369.473 390.391C369.302 390.274 369.177 390.122 369.019 389.993C368.826 389.835 368.58 389.745 368.341 389.682C368.08 389.613 367.722 389.822 367.758 390.133Z" fill="#00AEE0"/>
</g>
<g clip-path="url(#clip1_5_942)">
<path d="M347.159 522.873C346.651 522.873 346.151 522.747 345.702 522.504C345.253 522.262 344.867 521.911 344.579 521.482C344.29 521.053 344.107 520.559 344.046 520.041C343.984 519.523 344.046 518.998 344.225 518.51C346.927 511.154 354.11 490.622 354.892 484.031C356.675 468.995 355.495 415.144 354.905 392.688C354.881 391.797 354.869 391.292 354.869 391.233C354.868 390.809 354.948 390.39 355.105 389.998C355.261 389.607 355.492 389.251 355.782 388.951C356.073 388.651 356.418 388.412 356.798 388.25C357.178 388.087 357.586 388.002 357.998 388.001H358.005C358.832 388.001 359.625 388.337 360.212 388.935C360.8 389.533 361.134 390.345 361.141 391.194C361.143 391.305 361.155 391.759 361.175 392.514C361.769 415.113 362.954 469.346 361.118 484.812C360.085 493.519 350.501 519.678 350.093 520.787C349.868 521.4 349.467 521.928 348.942 522.301C348.418 522.674 347.796 522.873 347.159 522.873Z" fill="#FFB400"/>
</g>
<g clip-path="url(#clip2_5_942)">
<path d="M318.353 699.645C314.162 699.645 311.934 699.3 310.84 699.035L315.762 676.317C315.762 676.317 315.601 676.261 315.23 676.206C315.489 676.244 321.819 677.108 342.761 673.978C355.325 672.101 369.868 669.667 382.477 665.846C400.19 660.479 405.144 654.956 406.451 652.83C408.02 650.28 407.584 649.329 407.323 648.76C405.577 644.95 397.365 640.09 388.99 639.286C376.627 638.103 355.694 644.02 348.672 646.401L341.952 624.205C344.971 623.181 372.003 614.253 390.978 616.074C403.996 617.322 420.865 624.9 427.14 638.587C431.093 647.209 430.301 656.783 424.91 665.546C413.183 684.609 379.977 691.956 345.841 697.057C332.305 699.079 323.72 699.645 318.353 699.645Z" fill="#FFB400"/>
<path d="M388.285 627.298C390.835 622.5 395.263 619.342 398.447 617.564C396.465 617.059 394.454 616.675 392.425 616.414C389.634 618.524 386.739 621.402 384.73 625.182C381.922 630.465 382.461 636.098 383.12 639.234C381.535 639.234 384.469 639.242 387.362 639.364C386.832 637.399 385.768 632.035 388.285 627.298ZM396.699 660.594C395.363 661.268 393.85 661.961 392.15 662.664C394.654 664.003 398.171 666.902 399.623 672.954C400.667 677.306 400.872 681.118 400.748 684.111C402.136 683.528 403.509 682.91 404.866 682.258C404.844 679.287 404.51 675.785 403.576 671.892C402.221 666.241 399.406 662.74 396.699 660.594ZM368.358 617.711C366.51 618.033 364.668 618.389 362.832 618.777C361.374 621.61 359.996 625.552 359.996 630.556C359.995 634.732 360.594 638.886 361.774 642.892C363.108 642.565 364.445 642.254 365.786 641.958C364.654 638.263 364.077 634.421 364.075 630.556C364.074 624.132 366.779 619.883 368.358 617.711ZM380.789 680.429C380.205 673.625 378.342 670.185 376.5 667.739C375.014 668.124 373.524 668.492 372.03 668.842L372.099 668.925C374.075 671.292 376.119 673.74 376.727 680.82C377.104 685.212 376.932 688.942 376.658 691.611C378.06 691.284 379.458 690.943 380.853 690.589C381.061 687.861 381.13 684.4 380.789 680.429ZM408.858 636.886C415.252 634.284 421.915 635.09 425.759 635.959C424.688 634.178 423.434 632.515 422.032 630.971C417.858 630.548 412.606 630.736 407.394 632.858C400.883 635.508 398.094 638.726 396.95 641.352C398.226 641.835 399.47 642.4 400.673 643.042C401.512 641.284 403.782 638.953 408.858 636.886ZM360.811 671.194C359.448 671.451 358.088 671.698 356.732 671.937V685.372C356.732 686.372 357.176 691.059 357.609 695.393C358.959 695.162 360.304 694.927 361.641 694.686C361.198 690.234 360.811 686.103 360.811 685.372V671.194ZM342.446 685.586C342.757 682.299 344.09 676.242 344.622 673.905C344.038 673.994 343.452 674.083 342.876 674.169C342.013 674.297 341.15 674.423 340.286 674.545C339.639 677.492 338.665 682.218 338.387 685.157C338.127 687.908 338.617 693.858 339.053 698.211C340.403 698.036 341.752 697.853 343.1 697.662C342.663 693.266 342.233 687.848 342.446 685.586ZM416.837 654.175C421.993 656.073 424.335 661.514 425.354 665.185C426.366 663.472 427.206 661.73 427.868 659.972C426.161 656.1 423.219 651.954 418.177 650.099C414.138 648.612 410.328 648.337 407.222 648.534C407.301 648.674 407.375 648.813 407.438 648.95C407.696 649.512 408.12 650.449 406.622 652.926C409.42 652.65 413.029 652.774 416.837 654.175ZM330.44 675.772C327.618 676.067 325.268 676.255 323.332 676.37C322.306 677.725 321.324 679.439 320.561 681.593C319.232 685.341 317.706 693.174 316.549 699.808C317.139 699.825 317.775 699.835 318.469 699.835C319.158 699.835 319.902 699.825 320.701 699.805C321.806 693.525 323.203 686.428 324.379 683.108C326.347 677.555 330.022 675.941 330.44 675.772Z" fill="#04294F"/>
<path d="M323.198 676.245C323.241 676.185 323.269 676.116 323.279 676.044C323.29 675.971 323.284 675.897 323.26 675.828C323.236 675.758 323.196 675.695 323.144 675.644C323.091 675.594 323.026 675.556 322.956 675.535C321.949 675.23 319.34 673.65 316.79 672.946C313.165 671.946 302.173 669.786 295.798 672.483C288.71 675.481 279.127 686.343 274.634 696.365C270.141 706.388 269.176 712.43 273.687 715.216C279.617 718.879 289.557 721.883 293.471 715.486C297.385 709.089 297.819 703.788 298.076 702.176C298.526 699.357 305.405 695.086 310.77 695.117C312.386 695.126 312.604 695.572 313.344 695.813C313.602 695.897 313.872 695.713 313.869 695.442C313.857 694.509 314.078 692.343 315.618 688.043C317.492 682.805 321.953 677.978 323.198 676.245Z" fill="#F04E23"/>
<path d="M302.258 671.147C302.258 671.147 296.603 672.612 286.955 683.876C281.135 690.671 277.374 696.375 275.553 703.535C273.331 712.268 276.282 716.641 276.282 716.641C276.282 716.641 269.659 714.573 270.559 708.934C271.277 704.443 271.791 699.04 279.815 687.398C287.839 675.755 293.302 670.652 302.258 671.147Z" fill="#04294F"/>
<path d="M311.051 679.253C311.37 677.251 309.556 675.296 306.998 674.887C304.44 674.478 302.107 675.77 301.787 677.772C301.467 679.774 303.281 681.729 305.839 682.138C308.398 682.547 310.731 681.255 311.051 679.253Z" fill="#00AEE0"/>
<path d="M306.766 683.236C306.395 683.235 306.025 683.206 305.659 683.147C304.198 682.914 302.887 682.24 301.967 681.249C300.984 680.19 300.555 678.899 300.761 677.614C300.966 676.329 301.775 675.236 303.04 674.536C304.223 673.881 305.678 673.649 307.14 673.882C308.601 674.116 309.912 674.79 310.831 675.781C311.815 676.84 312.244 678.131 312.038 679.416C311.833 680.7 311.023 681.794 309.759 682.494C308.877 682.983 307.842 683.236 306.766 683.236ZM302.774 677.936C302.67 678.588 302.914 679.272 303.462 679.861C304.073 680.52 304.968 680.971 305.981 681.133C306.994 681.295 307.985 681.144 308.771 680.71C309.475 680.32 309.92 679.746 310.024 679.094C310.128 678.442 309.884 677.758 309.337 677.168C308.726 676.51 307.831 676.058 306.817 675.897C305.804 675.735 304.813 675.885 304.027 676.32C303.324 676.71 302.878 677.284 302.774 677.936Z" fill="white"/>
<path d="M290.458 694.041C290.586 693.236 291.52 692.559 291.988 692.221C292.455 691.882 295.951 693.267 298.11 695.265C299.065 696.148 299.583 697.2 299.87 698.102C299.182 698.835 298.735 699.561 298.631 700.209C298.598 700.418 298.561 700.69 298.515 701.017C297.495 699.693 296.396 698.392 295.646 697.762C293.825 696.232 290.329 694.847 290.458 694.041ZM296.446 688.385C296.335 688.312 296.24 688.216 296.167 688.104C296.095 687.992 296.047 687.867 296.026 687.735C296.005 687.603 296.011 687.469 296.045 687.34C296.079 687.211 296.14 687.091 296.223 686.986C296.535 686.593 296.889 686.176 297.11 686.016C297.577 685.678 301.081 686.593 303.571 689.527C305.133 691.369 305.671 693.212 305.857 694.299C304.79 694.718 303.762 695.228 302.782 695.821C302.253 694.546 301.561 693.144 300.703 691.961C299.76 690.659 297.643 689.169 296.446 688.385Z" fill="#00AEE0"/>
<path d="M312.687 676.626C314.125 676.571 315.554 676.453 316.995 676.453C317.715 676.453 318.436 676.476 319.154 676.521C319.821 676.564 320.54 676.692 321.201 676.556C321.386 676.518 321.433 676.219 321.256 676.137C320.617 675.84 319.846 675.831 319.154 675.791C318.435 675.749 317.715 675.73 316.995 675.734C315.544 675.742 314.042 675.827 312.621 676.138C312.348 676.197 312.407 676.637 312.687 676.626Z" fill="#04294F"/>
<path d="M259.419 542.364C258.805 542.253 244.184 539.539 228.369 531.314C206.454 519.918 192.567 503.378 188.212 483.483C179.862 445.348 202.545 407.992 223.24 379.708L241.312 392.12C214.453 428.829 204.76 455.633 209.882 479.029C212.884 492.742 222.629 503.971 238.846 512.404C251.465 518.967 263.38 521.248 263.497 521.269L259.419 542.364ZM416.264 557.923C405.626 557.923 393.001 554.831 378.131 548.618C365.995 543.548 355.662 543.493 353.56 543.756C353.611 543.749 354.837 543.59 356.347 542.841L346.468 523.238C349.456 521.756 354.713 521.377 362.095 522.111C367.789 522.678 376.681 524.232 386.702 528.419C409.734 538.041 420.121 536.421 424.264 534.597C426.246 533.725 429.105 531.933 431.04 526.46C432.002 523.741 430.957 519.216 428.019 513.374C424.496 506.371 418.807 498.522 413.305 490.932C401.627 474.821 390.596 459.604 394.215 445.242L415.644 450.558C415.622 450.647 415.132 452.827 418.658 459.355C421.686 464.958 426.325 471.359 431.237 478.135C437.249 486.429 443.465 495.005 447.782 503.587C453.612 515.177 454.953 525.033 451.882 533.717C448.402 543.559 441.948 550.792 433.217 554.633C428.238 556.824 422.604 557.922 416.264 557.923ZM305.286 702.063C300.089 702.063 291.891 701.827 279.33 700.954C270.139 700.315 252.174 698.574 235.112 694.091C216.111 689.098 203.664 682.212 197.061 673.039C191.486 665.295 190.153 656.377 193.308 647.928C199.298 631.886 219.574 622.864 231.741 620.714C250.209 617.452 275 620.505 276.045 620.637L273.455 643.824L273.45 643.823C273.033 643.772 250.638 641.047 235.362 643.746C225.396 645.506 215.411 652.174 213.788 656.521C213.642 656.912 213.477 657.355 214.57 658.874C220.898 667.663 248.12 675.386 280.771 677.656C303.539 679.238 310.427 678.588 310.709 678.56L310.578 678.575L313.152 701.764C312.502 701.845 310.281 702.063 305.286 702.063Z" fill="#FFB400"/>
<path d="M259.562 619.508C258.061 619.449 256.558 619.407 255.056 619.381C256.355 622.317 257.616 625.989 257.616 629.203C257.616 633.145 256.051 638.707 254.721 642.723C256.187 642.749 257.618 642.794 258.995 642.851C260.315 638.668 261.695 633.312 261.695 629.203C261.695 625.97 260.726 622.505 259.562 619.508ZM222.596 690.311C223.994 690.831 225.401 691.324 226.817 691.79C226.455 688.039 226.242 682.667 227.35 678.673C228.402 674.882 230.971 671.531 232.968 669.365C231.542 668.895 230.128 668.39 228.727 667.851C226.689 670.32 224.492 673.651 223.437 677.453C222.329 681.445 222.327 686.384 222.596 690.311ZM269.213 700.204C270.911 700.384 272.514 700.538 274.005 700.671C272.592 698.025 270.668 693.233 270.668 686.71C270.668 682.701 271.623 679.289 272.449 677.087C271.035 676.945 269.635 676.792 268.249 676.63C267.401 679.179 266.59 682.669 266.59 686.71C266.59 692.418 267.86 696.969 269.213 700.204ZM435.654 534.494C433.632 532.323 431.518 531.263 428.718 530.932C427.018 533.46 424.895 534.725 422.107 535.26C425.24 535.02 430.238 534.889 432.535 537.354C435.175 540.189 437.671 547.329 438.912 551.584C440.112 550.743 441.247 549.647 442.498 548.839C442.237 547.984 441.962 547.132 441.674 546.285C439.769 540.704 437.744 536.737 435.654 534.494ZM307.261 702.192C309.094 702.169 310.441 702.114 311.395 702.056C311.756 698.802 311.842 694.299 310.547 689.95C309.266 685.649 307.266 681.726 305.571 678.857C304.237 678.859 302.607 678.844 300.637 678.797C302.31 681.337 305.108 686.053 306.657 691.253C307.821 695.162 307.627 699.359 307.261 702.192ZM290.539 701.773C291.983 701.845 293.341 701.907 294.618 701.959C294.736 698.129 294.754 693.23 294.31 689.469C293.904 686.03 293.108 681.944 292.354 678.489C290.94 678.42 289.525 678.345 288.112 678.263C288.915 681.846 289.834 686.366 290.263 690.005C290.67 693.46 290.651 698.103 290.539 701.773ZM203.679 658.834C198.243 661.715 195.858 665.647 194.81 669.535C195.481 670.8 196.238 672.018 197.076 673.18C197.422 673.659 197.781 674.127 198.153 674.586C198.469 669.601 199.852 665.697 205.503 662.701C212.367 659.063 221.233 664.174 221.314 664.227C218.497 662.588 215.852 660.775 214.586 659.016C213.97 658.161 213.754 657.647 213.708 657.291C210.618 656.831 207.086 657.028 203.679 658.834ZM245.059 696.536C246.491 696.829 247.916 697.105 249.329 697.364C248.746 693.8 248.235 689.513 248.235 685.413C248.235 680.433 250.1 676.501 251.652 674.092C250.211 673.815 248.773 673.522 247.338 673.212C245.715 676.154 244.156 680.306 244.156 685.413C244.156 689.228 244.556 693.128 245.059 696.536ZM206.896 638.404C204.54 637.531 202.128 637.402 199.838 637.693C198.262 639.417 196.853 641.272 195.664 643.254C198.597 642.055 202.233 641.255 205.549 642.486C212.713 645.143 215.526 650.583 216.471 653.068C217.402 652.178 218.531 651.272 219.804 650.39C218.252 646.916 214.644 641.279 206.896 638.404ZM229.613 621.167C227.564 621.94 225.032 622.112 222.946 623.15C227.387 624.107 232.727 626.601 234.301 629.105C236.832 633.13 237.288 639.316 237.222 643.472C238.558 642.98 239.919 643.381 241.301 643.039C241.246 638.421 240.531 631.215 237.695 626.707C236.069 624.121 232.895 622.359 229.613 621.167Z" fill="#04294F"/>
<path d="M305.631 678.99C305.598 678.925 305.582 678.852 305.582 678.779C305.583 678.705 305.601 678.633 305.636 678.569C305.67 678.504 305.719 678.448 305.78 678.406C305.84 678.364 305.909 678.337 305.982 678.328C307.025 678.186 309.235 676.95 311.865 676.658C315.603 676.243 326.797 675.844 332.667 679.514C339.193 683.593 346.943 695.83 349.798 706.436C352.654 717.042 352.654 723.161 347.759 725.201C341.325 727.882 331.036 729.28 328.181 722.345C325.325 715.41 325.734 710.107 325.734 708.476C325.734 705.62 319.144 702.675 313.841 701.859C312.244 701.613 311.958 702.019 311.189 702.14C310.921 702.182 310.683 701.958 310.73 701.691C310.888 700.772 311.483 696.241 310.642 691.751C309.616 686.283 306.587 680.898 305.631 678.99Z" fill="#F04E23"/>
<path d="M326.498 677.174C326.498 677.174 331.852 679.514 339.601 692.159C344.276 699.787 347.09 706.013 347.759 713.371C348.575 722.345 344.97 726.197 344.97 726.197C344.97 726.197 351.838 725.2 351.838 719.49C351.838 714.942 352.183 709.526 346.096 696.763C340.009 684.001 335.42 678.099 326.498 677.174Z" fill="#04294F"/>
<path d="M321.246 687.468C323.837 687.468 325.937 685.824 325.937 683.797C325.937 681.769 323.837 680.126 321.246 680.126C318.656 680.126 316.556 681.769 316.556 683.797C316.556 685.824 318.656 687.468 321.246 687.468Z" fill="#00AEE0"/>
<path d="M321.246 688.488C318.097 688.488 315.536 686.384 315.536 683.797C315.536 681.21 318.097 679.106 321.246 679.106C324.395 679.106 326.957 681.21 326.957 683.797C326.957 686.384 324.395 688.488 321.246 688.488ZM321.246 681.145C319.256 681.145 317.575 682.359 317.575 683.797C317.575 685.234 319.257 686.448 321.246 686.448C323.236 686.448 324.917 685.234 324.917 683.797C324.917 682.359 323.236 681.145 321.246 681.145Z" fill="white"/>
<path d="M334.706 703.581C334.706 702.765 333.891 701.949 333.483 701.541C333.075 701.133 329.404 701.949 326.957 703.581C325.875 704.302 325.197 705.259 324.772 706.105C325.335 706.937 325.662 707.724 325.662 708.382C325.662 708.593 325.656 708.868 325.65 709.197C326.866 708.051 328.156 706.94 328.996 706.436C331.035 705.213 334.706 704.396 334.706 703.581ZM329.685 697.05C329.807 696.995 329.916 696.916 330.005 696.817C330.094 696.718 330.161 696.601 330.203 696.475C330.244 696.348 330.259 696.214 330.246 696.081C330.233 695.949 330.192 695.82 330.127 695.704C329.881 695.266 329.597 694.799 329.404 694.606C328.996 694.198 325.391 694.549 322.47 697.054C320.636 698.625 319.009 701.619 318.653 702.663C319.66 703.258 321.416 702.679 322.255 703.393C322.979 702.218 323.884 700.942 324.917 699.909C326.054 698.772 328.38 697.635 329.685 697.05Z" fill="#00AEE0"/>
<path d="M393.599 452.45C396.23 451.519 399.88 450.816 404.089 451.652C409.664 452.759 414.14 454.46 417.248 456.33C415.761 453.181 415.699 452.044 415.645 451.165C414.471 450.598 413.088 448.839 411.726 448.321L402.254 447.146C399.383 446.905 396.492 447.185 393.72 447.973C393.539 449.456 393.507 450.948 393.599 452.45ZM421.487 546.749C421.045 542.141 418.987 538.491 416.905 535.891C415.115 535.927 413.024 535.814 410.592 535.481C412.469 537.038 416.683 541.156 417.258 547.148C417.586 550.565 416.834 554.44 415.828 557.831C415.981 557.833 416.138 557.84 416.29 557.84C417.654 557.84 418.984 557.786 420.283 557.684C421.209 554.2 421.83 550.321 421.487 546.749ZM373.498 533.127C373.698 537.899 371.759 542.442 369.857 545.699C371.2 546.061 372.592 546.482 374.024 546.971C376.058 543.273 377.967 538.311 377.742 532.951C377.598 529.526 376.709 526.732 375.6 524.533C373.607 523.995 371.596 523.528 369.57 523.132C371.11 524.84 373.287 528.112 373.498 533.127ZM452.18 532.827C452.685 531.245 453.046 529.62 453.26 527.972C450.68 525.728 446.979 523.516 441.862 522.54C437.303 521.671 433.839 521.801 431.265 522.319C431.507 523.934 431.446 525.3 431.066 526.378C431.018 526.512 430.967 526.635 430.918 526.766C432.945 526.153 436.204 525.752 441.06 526.679C446.656 527.747 450.171 530.564 452.18 532.827ZM390.83 553.244C392.241 553.698 393.625 554.115 394.989 554.501C396.712 551.421 398.335 548.025 398.935 545.289C400.036 540.265 399.095 535.791 397.776 532.437C395.846 531.818 393.932 531.151 392.036 530.438C393.58 532.935 396.133 538.236 394.784 544.393C394.232 546.913 392.556 550.257 390.83 553.244ZM434.278 500.621C430.007 501.405 426.573 503.911 424.106 506.396C424.887 507.638 425.64 508.898 426.366 510.173C428.401 507.919 431.382 505.439 435.052 504.765C439.608 503.928 444.271 503.933 448.162 504.222C448.045 503.983 447.929 503.744 447.808 503.504C447.188 502.275 446.54 501.061 445.864 499.862C442.282 499.737 438.271 499.887 434.278 500.621ZM411.972 468.218C407.764 469.455 404.368 471.611 401.707 473.927C402.455 475.153 403.222 476.366 404.009 477.567C406.353 475.415 409.396 473.372 413.179 472.259C417.618 470.953 423.055 471.659 427.427 472.732C426.249 471.087 425.091 469.429 423.952 467.757C419.967 467.183 415.701 467.122 411.972 468.218ZM423.681 483.336C419.409 484.073 415.577 486.736 412.497 489.698L413.331 490.849C413.885 491.614 414.441 492.382 414.997 493.151C417.644 490.494 420.904 488.093 424.409 487.488C428.381 486.803 433.722 487.349 438.478 488.18C437.376 486.583 436.261 484.995 435.132 483.417C431.144 482.927 427.046 482.755 423.681 483.336ZM237.628 397.124C238.451 395.96 239.281 394.802 240.117 393.647C238.147 391.635 234.764 388.59 230.338 386.179C227.613 384.693 223.648 384.106 220.118 383.906C219.16 385.246 218.211 386.593 217.271 387.945C222.144 387.977 226.157 388.636 228.249 389.776C232.7 392.202 236.03 395.414 237.628 397.124ZM237.938 512.085C236.625 511.392 235.33 510.664 234.054 509.902C233.456 512.837 232.046 518.278 229.249 522.178C227.521 524.588 225.296 526.856 223.298 528.677C224.566 529.42 225.848 530.137 227.146 530.826C229.059 529.01 231.086 526.848 232.747 524.534C235.581 520.582 237.143 515.497 237.938 512.085ZM211.767 417.908C215.372 419.563 218.269 422.342 220.294 424.752C220.971 423.444 221.675 422.123 222.41 420.786C220.172 418.374 217.211 415.839 213.591 414.178C209.641 412.365 205.627 411.649 202.407 411.408C201.68 412.745 200.969 414.091 200.274 415.445C203.28 415.51 207.612 416.002 211.767 417.908ZM210.255 398.706C211.948 398.771 216.066 399.211 221.055 401.771C224.487 403.531 227.553 406.563 229.723 409.093C230.51 407.87 231.306 406.653 232.113 405.442C229.751 402.84 226.617 399.953 223.048 398.123C218.944 396.018 215.326 395.148 212.803 394.796C211.943 396.093 211.094 397.396 210.255 398.706ZM249.395 528.637C248.304 532.411 245.67 535.791 243.588 538.015C245.029 538.524 246.478 539.007 247.936 539.464C250.072 536.959 252.392 533.575 253.497 529.75C254.644 525.785 254.654 521.946 254.377 518.921C252.876 518.444 251.386 517.935 249.907 517.392C250.315 520.268 250.609 524.436 249.395 528.637ZM214.189 511.512C219.422 508.516 222.024 504.896 223.321 502.01C222.176 500.968 221.076 499.875 220.026 498.737C219.397 500.957 217.535 504.802 212.022 507.958C209.779 509.242 205.988 510.555 202.316 511.653C203.323 512.807 204.366 513.929 205.444 515.017C208.769 513.959 212.038 512.743 214.189 511.512ZM201.823 489.827C205.435 488.713 208.723 486.984 211.452 485.23C210.925 483.888 210.471 482.519 210.09 481.128C207.457 482.923 204.154 484.777 200.531 485.894C196.645 487.092 192.292 487.043 188.679 486.629C189.077 488.075 189.522 489.503 190.022 490.91C193.708 491.181 197.909 491.033 201.823 489.827ZM196.065 462.683C198.482 462.683 203.665 463.172 208.33 463.672C208.397 462.314 208.507 460.942 208.664 459.554C203.921 459.048 198.643 458.556 196.065 458.556C193.507 458.556 189.72 459.032 186.45 459.532C186.327 460.936 186.236 462.345 186.182 463.756C189.486 463.23 193.534 462.683 196.065 462.683ZM202.937 439.126C205.691 439.596 209.254 441.144 212.507 442.81C212.952 441.488 213.423 440.175 213.919 438.871C210.492 437.158 206.739 435.584 203.677 435.061C200.452 434.509 195.905 434.587 191.84 435.015C191.347 436.448 190.88 437.891 190.441 439.343C194.12 438.813 199.053 438.462 202.937 439.126Z" fill="#04294F"/>
<path d="M220.513 382.061C220.575 382.386 220.751 382.678 221.009 382.886C221.267 383.093 221.591 383.202 221.921 383.192C223.354 383.146 226.47 383.402 230.827 385.726C236.945 388.989 239.457 392.202 241.024 394.292C242.248 395.924 245.919 387.765 247.142 384.502C248.323 381.352 252.656 376.147 249.997 373.488C247.551 371.041 204.315 356.763 203.091 356.355L203.055 356.343C202.793 356.255 202.516 356.222 202.241 356.246C201.966 356.27 201.699 356.35 201.456 356.481C201.214 356.613 201.001 356.793 200.83 357.01C200.66 357.227 200.537 357.478 200.468 357.745C199.772 360.43 198.736 364.645 199.012 364.922C199.42 365.33 204.723 369.001 209.617 371.857C214.524 374.719 222.764 377.442 221.446 379.199C220.623 380.296 220.354 381.209 220.513 382.061ZM416.846 454.117C416.588 454.324 416.265 454.433 415.934 454.424C415.603 454.415 415.287 454.288 415.041 454.066C413.979 453.103 411.032 451.687 406.207 450.635C399.432 449.158 395.438 449.979 392.89 450.555C390.901 451.006 393.389 442.412 394.57 439.133C395.71 435.969 395.78 429.196 399.529 428.893C402.978 428.614 445.165 445.746 446.361 446.227L446.397 446.242C446.653 446.344 446.886 446.499 447.08 446.695C447.274 446.891 447.425 447.125 447.525 447.382C447.625 447.64 447.67 447.915 447.659 448.191C447.648 448.466 447.58 448.737 447.46 448.985C446.251 451.482 444.31 455.364 443.92 455.396C443.345 455.443 436.928 454.804 431.349 453.809C425.756 452.811 417.716 449.548 417.581 451.74C417.498 453.109 417.52 453.571 416.846 454.117Z" fill="#F04E23"/>
<path d="M205.24 357.19C204.865 357.502 204.528 357.84 204.313 358.281C204.091 358.736 203.913 359.216 203.808 359.712C203.707 360.206 203.678 360.711 203.721 361.213C203.743 361.479 203.764 361.759 203.839 362.015C203.92 362.29 204.043 362.559 204.164 362.818C204.276 363.058 204.595 363.224 204.853 363.213C204.862 363.213 204.871 363.212 204.88 363.212L204.517 363.114C204.436 363.073 204.583 363.2 204.591 363.207C204.66 363.271 204.743 363.32 204.824 363.367C205.068 363.514 205.488 363.392 205.537 363.077C205.551 362.986 205.575 362.889 205.579 362.798C205.58 362.761 205.608 362.599 205.573 362.684L205.242 363.113L205.255 363.104C205.56 362.874 205.699 362.584 205.622 362.203C205.599 362.095 205.58 361.987 205.564 361.878C205.587 362.053 205.555 361.73 205.552 361.7C205.538 361.566 205.515 361.436 205.493 361.303C205.525 361.497 205.48 361.165 205.477 361.13C205.447 360.732 205.472 360.337 205.508 359.941C205.512 359.9 205.516 359.859 205.521 359.819C205.508 359.91 205.509 359.904 205.524 359.802C205.544 359.693 205.562 359.585 205.587 359.478C205.628 359.291 205.681 359.107 205.742 358.926C205.82 358.701 205.857 358.649 205.921 358.389C205.964 358.208 206.029 358.026 206.103 357.856C206.353 357.285 205.737 356.777 205.24 357.19Z" fill="#04294F"/>
<path d="M204.73 363.41C205.818 364.72 207.185 365.592 208.65 366.429C210.067 367.235 211.531 367.955 213.035 368.585C214.551 369.224 216.075 369.733 217.66 370.157C219.242 370.58 220.92 371.092 222.572 370.936C222.905 370.905 223.201 370.725 223.294 370.386C223.374 370.094 223.249 369.669 222.95 369.54C221.488 368.911 219.902 368.662 218.372 368.238C216.832 367.811 215.288 367.226 213.808 366.623C212.372 366.037 210.974 365.351 209.62 364.597C208.927 364.21 208.263 363.778 207.58 363.378C206.878 362.968 206.104 362.65 205.351 362.345C204.697 362.08 204.375 362.981 204.73 363.41ZM443.105 445.37C443.059 445.525 443.006 445.677 442.946 445.826L442.953 445.809L442.928 445.866L442.977 445.813C442.904 445.88 442.85 445.965 442.819 446.059C442.79 446.13 442.764 446.202 442.742 446.275C442.709 446.379 442.67 446.48 442.633 446.582C442.582 446.726 442.667 446.515 442.626 446.602C442.603 446.65 442.582 446.7 442.559 446.749C442.418 447.043 442.251 447.323 442.059 447.586L441.869 447.852C441.79 447.961 441.891 447.853 441.887 447.829C441.89 447.847 441.775 447.966 441.763 447.98C441.628 448.137 441.485 448.286 441.334 448.426C441.175 448.573 441.014 448.717 440.855 448.864C440.777 448.936 440.696 449.006 440.613 449.073C440.432 449.22 440.36 449.402 440.301 449.62L440.47 449.331C440.357 449.456 440.252 449.579 440.164 449.724C440.014 449.97 440.143 450.385 440.454 450.437C440.687 450.476 440.875 450.463 441.108 450.427H440.76C441.046 450.509 441.26 450.5 441.536 450.373C441.645 450.323 441.751 450.27 441.856 450.212C442.114 450.071 442.343 449.896 442.558 449.696C442.939 449.34 443.304 448.918 443.562 448.464C443.821 448.009 444.027 447.508 444.159 447.002C444.187 446.897 444.211 446.791 444.232 446.684C444.251 446.585 444.287 446.443 444.283 446.353L444.256 446.149C444.261 446.236 444.262 446.251 444.259 446.194C444.248 445.917 444.217 445.641 444.165 445.369C444.125 445.135 443.86 444.966 443.635 444.966C443.515 444.968 443.399 445.008 443.304 445.081C443.209 445.154 443.139 445.255 443.105 445.37Z" fill="#04294F"/>
<path d="M440.655 449.29C439.164 448.779 437.637 448.596 436.098 448.289C434.53 447.975 432.982 447.569 431.462 447.073C430.008 446.598 428.542 446.06 427.143 445.442C425.674 444.792 424.302 443.893 422.76 443.423C422.03 443.2 421.524 444.152 422.032 444.675C423.175 445.851 424.731 446.552 426.196 447.241C427.734 447.965 429.272 448.609 430.897 449.122C432.451 449.614 434.034 450.008 435.637 450.304C436.466 450.457 437.306 450.604 438.145 450.687C438.973 450.77 439.842 450.669 440.655 450.519C441.321 450.397 441.199 449.476 440.655 449.29Z" fill="#04294F"/>
<path d="M280.254 650.143C289.602 650.143 297.181 642.564 297.181 633.215C297.181 623.866 289.602 616.286 280.254 616.286C270.905 616.286 263.327 623.866 263.327 633.215C263.327 642.564 270.905 650.143 280.254 650.143Z" fill="#04294F"/>
<path d="M336.95 650.143C346.299 650.143 353.877 642.564 353.877 633.215C353.877 623.866 346.299 616.286 336.95 616.286C327.601 616.286 320.023 623.866 320.023 633.215C320.023 642.564 327.601 650.143 336.95 650.143Z" fill="#04294F"/>
<path d="M270.261 616.694C270.261 613.838 288.616 607.72 309.01 608.127C329.404 608.535 346.943 614.246 346.943 616.694C346.943 619.142 340.136 631.21 335.115 637.906C330.22 644.432 322.47 650.959 319.615 652.183C316.76 653.406 311.866 654.222 307.787 654.222C303.688 654.222 296.774 652.998 294.735 651.775C292.756 650.587 283.762 640.245 280.051 635.05C275.971 629.339 270.261 619.549 270.261 616.694Z" fill="#F04E23"/>
<path d="M287.287 624.707C292.252 626.641 297.659 627.449 302.945 627.908C308.208 628.365 313.54 628.327 318.785 627.677C320.23 627.498 321.675 627.293 323.112 627.056C324.605 626.81 326.105 626.405 327.56 625.982C328.074 625.833 327.85 625.118 327.344 625.199C322.161 626.019 316.988 626.72 311.731 626.864C306.496 627.009 301.259 626.652 296.093 625.798C293.195 625.317 290.323 624.698 287.437 624.163C287.076 624.097 286.949 624.576 287.287 624.707ZM322.478 613.279C322.481 615.552 320.847 617.499 318.607 617.883C316.165 618.301 312.84 619.137 309.432 619.14C305.537 619.144 301.538 618.259 298.699 617.821C297.597 617.652 296.593 617.094 295.868 616.249C295.142 615.403 294.743 614.326 294.742 613.212L294.724 595.269C294.722 592.691 296.81 590.599 299.388 590.596L317.788 590.578C320.366 590.576 322.458 592.664 322.46 595.242L322.478 613.279Z" fill="#04294F"/>
<path d="M277.603 563.257C277.603 563.257 286.984 592.219 287.799 593.442C288.615 594.666 291.47 595.482 292.694 595.89C293.918 596.298 300.036 597.929 308.193 597.929C316.351 597.929 324.101 596.297 325.733 595.89C326.524 595.692 329.403 595.074 330.219 593.85C331.035 592.627 339.193 561.625 339.193 561.625L277.603 563.257Z" fill="#FFB400"/>
<path d="M309.566 594.259C310.848 594.259 311.888 593.219 311.888 591.936C311.888 590.654 310.848 589.614 309.566 589.614C308.284 589.614 307.244 590.654 307.244 591.936C307.244 593.219 308.284 594.259 309.566 594.259Z" fill="#04294F"/>
<path d="M298.475 591.763C299.757 591.763 300.797 590.723 300.797 589.441C300.797 588.158 299.757 587.118 298.475 587.118C297.192 587.118 296.153 588.158 296.153 589.441C296.153 590.723 297.192 591.763 298.475 591.763Z" fill="#04294F"/>
<path d="M292.129 584.869C293.411 584.869 294.451 583.829 294.451 582.546C294.451 581.264 293.411 580.224 292.129 580.224C290.846 580.224 289.807 581.264 289.807 582.546C289.807 583.829 290.846 584.869 292.129 584.869Z" fill="#04294F"/>
<path d="M288.898 576.229C290.18 576.229 291.22 575.189 291.22 573.906C291.22 572.624 290.18 571.584 288.898 571.584C287.616 571.584 286.576 572.624 286.576 573.906C286.576 575.189 287.616 576.229 288.898 576.229Z" fill="#04294F"/>
<path d="M320.195 590.263C321.478 590.263 322.517 589.223 322.517 587.941C322.517 586.658 321.478 585.619 320.195 585.619C318.913 585.619 317.873 586.658 317.873 587.941C317.873 589.223 318.913 590.263 320.195 590.263Z" fill="#04294F"/>
<path d="M325.878 583.037C327.161 583.037 328.2 581.997 328.2 580.714C328.2 579.432 327.161 578.392 325.878 578.392C324.596 578.392 323.556 579.432 323.556 580.714C323.556 581.997 324.596 583.037 325.878 583.037Z" fill="#04294F"/>
<path d="M328.2 575.652C329.483 575.652 330.522 574.612 330.522 573.329C330.522 572.047 329.483 571.007 328.2 571.007C326.918 571.007 325.878 572.047 325.878 573.329C325.878 574.612 326.918 575.652 328.2 575.652Z" fill="#04294F"/>
<path d="M305.747 506.556C331.851 506.556 356.732 515.53 359.18 517.977C361.627 520.425 362.85 528.175 362.85 537.149C362.85 546.124 359.587 554.282 355.916 557.137C352.245 559.993 313.496 574.27 309.009 574.27C306.562 574.27 266.59 562.44 262.918 559.177C259.247 555.913 255.984 548.163 255.984 539.189C255.984 530.215 256.8 517.977 259.655 515.937C262.511 513.898 284.945 506.556 305.747 506.556Z" fill="#F04E23"/>
<path d="M308.194 517.161C316.529 517.161 323.286 514.787 323.286 511.858C323.286 508.93 316.529 506.556 308.194 506.556C299.859 506.556 293.102 508.93 293.102 511.858C293.102 514.787 299.859 517.161 308.194 517.161Z" fill="#04294F"/>
<path d="M270.086 531.425C272.402 532.127 274.741 532.789 277.122 533.235C279.518 533.684 281.911 534.144 284.32 534.52C289.378 535.309 294.473 535.783 299.585 536.046C309.812 536.572 320.119 536.148 330.276 534.856C333.088 534.498 335.89 534.067 338.68 533.564C340.003 533.325 341.297 533.042 342.586 532.661C343.89 532.276 345.263 532.066 346.588 531.757C347.802 531.474 347.284 529.653 346.075 529.898C344.899 530.136 343.714 530.407 342.526 530.576C341.361 530.742 340.183 530.814 339.017 530.994C336.654 531.357 334.285 531.681 331.912 531.967C326.902 532.573 321.865 532.972 316.825 533.231C306.686 533.752 296.527 533.451 286.428 532.445C281.077 531.912 275.759 531.026 270.484 529.981C269.546 529.795 269.154 531.142 270.086 531.425ZM267.813 548.98C267.236 549.557 267.813 555.098 268.629 556.322C269.444 557.546 271.484 557.954 273.523 557.954C275.562 557.954 274.747 556.73 274.339 553.466C273.931 550.203 274.747 549.387 273.523 548.979C272.3 548.571 268.629 548.163 267.813 548.98ZM278.047 549.936C277.381 550.609 278.047 557.071 278.988 558.499C279.93 559.925 282.284 560.401 284.638 560.401C286.992 560.401 286.05 558.974 285.58 555.169C285.109 551.363 286.05 550.412 284.638 549.936C283.225 549.461 278.988 548.985 278.047 549.936ZM349.973 548.98C350.55 549.557 349.973 555.098 349.157 556.322C348.342 557.546 346.302 557.954 344.263 557.954C342.224 557.954 343.039 556.73 343.447 553.466C343.855 550.203 343.039 549.387 344.263 548.979C345.486 548.571 349.157 548.163 349.973 548.98ZM339.74 549.936C340.405 550.609 339.74 557.071 338.798 558.499C337.856 559.925 335.502 560.401 333.148 560.401C330.794 560.401 331.736 558.974 332.207 555.169C332.677 551.364 331.736 550.412 333.148 549.936C334.561 549.461 338.798 548.985 339.74 549.936Z" fill="#04294F"/>
<path d="M315.554 513.898C315.554 513.898 311.85 514.714 308.194 514.714C304.49 514.714 300.834 513.898 300.834 513.898C297.69 513.898 295.142 511.35 295.142 508.205V493.893C295.142 490.749 297.69 488.2 300.834 488.2H315.554C318.698 488.2 321.246 490.749 321.246 493.893V508.205C321.246 511.349 318.698 513.898 315.554 513.898Z" fill="#FFB400"/>
<path d="M308.398 475.146C327.658 475.146 343.272 460.262 343.272 441.901C343.272 423.54 327.658 408.655 308.398 408.655C289.137 408.655 273.524 423.54 273.524 441.901C273.524 460.262 289.137 475.146 308.398 475.146Z" fill="#F04E23"/>
<path d="M273.524 439.657C272.892 442.914 274.155 487.383 274.155 487.383C274.155 487.383 274.747 495.95 281.273 497.989C287.799 500.028 296.773 501.253 307.378 501.253C317.983 501.253 329.811 500.845 333.482 499.621C337.153 498.397 343.272 493.91 343.272 488.607V439.426L275.563 435.578L273.524 439.657Z" fill="#F04E23"/>
<path d="M278.913 442.628C278.771 442.701 278.625 442.542 278.707 442.405C279.611 440.909 282.275 437.318 286.168 438.025C290.655 438.841 300.037 440.473 308.194 440.473C316.352 440.473 324.917 438.025 328.996 438.025C333.075 438.025 335.93 438.841 337.154 440.881C337.944 442.198 338.224 443.174 338.323 443.701C338.355 443.871 338.167 443.992 338.023 443.898C336.999 443.232 333.882 441.514 330.22 442.513C325.733 443.736 316.76 445.368 308.194 445.368C299.628 445.368 286.576 441.697 283.313 441.697C281.087 441.697 279.62 442.266 278.913 442.628ZM279.73 465.163C288.76 468.681 298.945 469.366 308.551 469.288C318.667 469.207 328.817 468.044 338.327 464.485C339.01 464.229 338.748 463.165 338.02 463.371C319.293 468.678 298.878 468.476 279.962 464.324C279.406 464.203 279.215 464.963 279.73 465.163Z" fill="#04294F"/>
<path d="M343.588 408.303C343.588 408.303 344.904 410.287 344.904 411.51C344.904 412.734 346.535 426.603 346.535 430.683C346.535 434.762 346.242 439.657 345.369 441.901C344.496 444.144 340.825 434.354 340.825 434.354L341.233 418.037L343.588 408.303ZM273.827 408.303C273.827 408.303 272.51 410.287 272.51 411.51C272.51 412.734 270.879 426.603 270.879 430.683C270.879 434.762 271.172 439.657 272.045 441.901C272.918 444.144 276.589 434.354 276.589 434.354L276.181 418.037L273.827 408.303Z" fill="#F04E23"/>
<path d="M338.378 483.996C338.378 487.544 335.835 490.577 332.344 491.208C326.717 492.225 317.88 493.502 309.01 493.502C300.341 493.502 291.638 492.231 286.07 491.216C282.585 490.58 280.05 487.549 280.05 484.006V479.892C280.05 475.502 283.883 472.103 288.243 472.617C293.654 473.255 301.106 473.922 308.602 473.922C316.539 473.922 324.524 473.219 330.226 472.566C334.571 472.068 338.378 475.471 338.378 479.846V483.996H338.378ZM343.272 447.727C341.882 447.878 338.683 441.489 338.327 439.145C337.97 436.801 338.378 414.416 338.378 412.734C338.378 410.695 337.942 408.115 339.601 407.839C340.851 407.631 341.993 407.742 342.813 407.9C343.554 408.043 344.08 408.704 344.069 409.458C343.998 414.097 343.772 430.602 344.088 433.131C344.496 436.394 344.903 438.842 345.311 440.881C345.719 442.92 344.088 447.638 343.272 447.727ZM274.142 447.727C275.532 447.878 278.731 441.489 279.088 439.145C279.445 436.801 279.036 414.416 279.036 412.734C279.036 410.695 279.472 408.115 277.813 407.839C276.563 407.631 275.421 407.742 274.601 407.9C273.86 408.043 273.334 408.704 273.345 409.458C273.416 414.097 273.642 430.602 273.326 433.131C272.918 436.394 272.511 438.842 272.103 440.881C271.695 442.92 273.326 447.638 274.142 447.727Z" fill="#04294F"/>
<path d="M307.582 480.857C293.81 480.857 283.899 478.825 283.8 478.804L284.049 477.607C284.147 477.627 293.944 479.633 307.582 479.633C324.816 479.633 333.845 477.232 333.934 477.207L334.255 478.388C334.165 478.412 325.002 480.857 307.582 480.857ZM309.213 487.384C295.045 487.384 283.924 485.355 283.813 485.334L284.036 484.131C284.146 484.151 295.164 486.16 309.213 486.16C324.839 486.16 333.845 483.759 333.934 483.734L334.255 484.915C334.165 484.939 325.02 487.384 309.213 487.384Z" fill="#FFB400"/>
<path d="M302.483 475.962H303.707V491.462H302.483V475.962ZM313.089 476.37H314.312V491.871H313.089V476.37ZM324.509 475.35H325.733V491.055H324.509V475.35ZM291.063 475.554H292.286V490.647H291.063V475.554Z" fill="#FFB400"/>
<path d="M331.159 462.31C317.091 464.63 301.96 464.719 285.878 462.674C283.916 462.425 282.322 460.85 282.003 458.794C281.548 455.867 281.493 452.895 281.808 449.882C282.075 447.331 284.272 445.068 286.635 445.691C301.664 449.651 316.16 449.459 330.117 445.301C332.507 444.589 334.799 446.885 335.067 449.488C335.352 452.274 335.262 455.201 334.884 458.236C334.625 460.316 333.124 461.986 331.159 462.31Z" fill="#04294F"/>
<path d="M288.094 454.573L288.181 454.712L288.041 454.193C288.094 455.06 288.711 455.914 289.252 456.56C289.711 457.108 290.212 457.619 290.75 458.09C291.909 459.103 293.501 460.218 295.051 460.461C296.069 460.621 297.075 460.368 297.811 459.613C298.459 458.948 298.824 458.042 299.149 457.19C299.446 456.412 299.735 455.608 299.912 454.795C300.021 454.294 300.108 453.806 300.164 453.295C300.218 452.797 300.329 452.376 300.059 451.911C299.885 451.613 299.427 451.369 299.078 451.512C298.619 451.7 298.422 451.957 298.172 452.367C297.985 452.675 297.782 452.972 297.622 453.295C297.26 454.03 296.968 454.779 296.693 455.551C296.48 456.152 296.274 456.745 295.931 457.288C295.9 457.336 295.734 457.575 295.838 457.424C295.782 457.506 295.784 457.575 295.666 457.568C295.815 457.576 295.786 457.564 295.619 457.526C295.805 457.568 295.332 457.432 295.346 457.436C294.379 457.16 293.152 456.279 292.257 455.599C292.073 455.452 291.891 455.302 291.713 455.148C291.485 454.948 291.265 454.741 291.05 454.528C290.561 454.042 289.996 453.475 289.342 453.201L289.956 453.674L289.854 453.542C289.519 453.106 288.977 452.873 288.459 453.177C287.994 453.449 287.8 454.104 288.094 454.573ZM326.888 453.951L326.787 454.082L327.401 453.61C326.775 453.871 326.218 454.412 325.75 454.878C325.372 455.255 324.81 455.763 324.486 456.008C323.587 456.686 322.367 457.568 321.396 457.844C321.358 457.855 320.926 457.979 321.123 457.935C321.053 457.951 320.866 457.971 321.048 457.96C320.992 457.964 320.987 457.914 320.958 457.887C320.869 457.806 320.968 457.94 320.853 457.762C320.489 457.2 320.271 456.586 320.048 455.959C319.785 455.218 319.505 454.502 319.162 453.794C318.989 453.438 318.774 453.113 318.57 452.776C318.308 452.343 318.142 452.117 317.664 451.921C317.315 451.778 316.86 452.017 316.683 452.32C316.412 452.787 316.524 453.205 316.578 453.704C316.633 454.213 316.718 454.705 316.83 455.204C317.012 456.017 317.296 456.82 317.593 457.599C317.914 458.441 318.27 459.287 318.88 459.965C319.601 460.767 320.655 461.032 321.691 460.87C323.241 460.627 324.833 459.511 325.992 458.499C326.53 458.028 327.031 457.517 327.49 456.969C328.032 456.322 328.648 455.469 328.701 454.602L328.561 455.121L328.648 454.982C328.94 454.515 328.748 453.858 328.283 453.587C327.757 453.277 327.225 453.513 326.888 453.951Z" fill="#FFB400"/>
</g>
<g clip-path="url(#clip3_5_942)">
<path d="M257.249 445.56H257.245C256.796 445.559 256.352 445.47 255.937 445.297C255.523 445.125 255.146 444.873 254.829 444.555C254.512 444.236 254.261 443.859 254.09 443.444C253.918 443.029 253.831 442.584 253.831 442.134C253.863 417.297 253.925 352.333 253.835 350.026C253.76 348.141 255.224 346.545 257.108 346.467C258.994 346.398 260.582 347.846 260.664 349.731C260.779 352.37 260.679 432.962 260.667 442.143C260.666 443.05 260.305 443.919 259.665 444.559C259.024 445.2 258.155 445.56 257.249 445.56Z" fill="#FFB400"/>
<path d="M248.197 464.376V476.204C248.197 477.354 249.208 478.456 250.394 478.403C251.585 478.349 252.591 477.437 252.591 476.204V464.376C252.591 463.225 251.581 462.123 250.394 462.177C249.204 462.23 248.197 463.143 248.197 464.376ZM262.38 464.376V476.204C262.38 477.354 263.391 478.456 264.577 478.403C265.768 478.349 266.774 477.437 266.774 476.204V464.376C266.774 463.225 265.764 462.123 264.577 462.177C263.387 462.23 262.38 463.143 262.38 464.376Z" fill="#04294F"/>
<path d="M246.375 450.182C246.719 448.805 248.739 440.719 257.249 440.719C266.705 440.719 268.199 447.802 268.596 450.182C269.068 453.02 272.087 461.097 270.96 466.741C270.014 471.473 263.395 471.946 256.777 471.946C250.158 471.946 245.43 471.946 244.485 467.214C243.835 463.967 245.43 453.967 246.375 450.182Z" fill="#F04E23"/>
</g>
<g clip-path="url(#clip4_5_942)">
<path d="M450.077 395.807C450.15 395.824 450.226 395.816 450.293 395.784C452.594 394.725 493.565 378.648 500.317 372.606C501.64 371.444 501.825 369.486 500.768 368.21C500.582 368.01 500.396 367.81 500.152 367.687C497.718 366.093 495.18 364.662 492.556 363.405C491.067 362.702 490.506 360.842 491.292 359.276C491.559 358.697 492.005 358.254 492.558 357.892C503.498 351.328 513.256 342.015 517.759 337.375C518.974 336.133 519.023 334.132 517.85 333.008C517.714 332.846 517.543 332.717 517.349 332.631C510.835 328.624 503.875 325.36 496.625 322.777C495.085 322.217 494.337 320.455 494.987 318.847C495.248 318.212 495.694 317.671 496.268 317.294C514.509 305.5 528.247 290.975 533.449 285.182C534.622 283.848 534.577 281.897 533.311 280.824L533.096 280.662C530.599 278.841 527.9 277.288 525.092 275.953C523.603 275.25 523.042 273.39 523.828 271.824C524.044 271.388 524.304 271.043 524.699 270.742C537.81 259.879 548.431 247.26 553.073 241.467C554.174 240.079 554 238.15 552.705 237.115C552.491 236.953 552.312 236.818 552.04 236.734C546.568 234.47 535.131 229.333 519.887 226.423C517.371 225.967 516.589 223.58 518.674 221.854C526.177 215.758 532.509 208.54 535.704 204.593C536.806 203.205 536.668 201.303 535.402 200.23C535.259 200.122 535.115 200.014 534.944 199.945C531.313 197.99 527.403 196.483 523.411 195.455C521.791 195.074 520.922 193.4 521.371 191.76C521.47 191.39 521.637 191.041 521.865 190.732C521.877 190.716 521.887 190.699 521.895 190.68C527.695 177.813 531.689 166.827 534.187 159.834C536.186 153.336 540.819 140.733 543.409 119.845C549.041 74.4245 498.484 50.0047 458.443 56.8422C447.52 58.7074 436.331 69.4336 433.051 72.471C419.866 84.6809 408.243 102.35 394.749 113.846C392.25 115.846 386.485 120.376 384.974 119.777C384.331 119.529 383.827 119.095 383.527 118.464C383.519 118.447 383.509 118.431 383.498 118.416C377.739 110.865 377.294 109.037 371.696 102.078C370.638 100.801 368.753 100.7 367.422 101.796C367.214 101.999 367.034 102.163 366.861 102.393C362.577 108.456 353.187 121.018 346.373 136.622C345.658 138.242 343.87 139.053 342.323 138.427C341.944 138.261 341.557 138.03 341.257 137.684C339.198 135.354 336.96 133.189 334.52 131.292C333.261 130.284 331.352 130.585 330.28 131.935L330.078 132.202C325.915 138.776 315.789 156.022 309.498 176.815C308.984 178.466 307.253 179.5 305.662 179.081C305.037 178.919 304.486 178.546 304.102 178.026C299.669 171.764 294.575 165.999 288.906 160.829C287.705 159.744 285.746 159.888 284.603 161.184L284.213 161.702C284.204 161.714 284.196 161.726 284.189 161.738C280.971 167.356 274.694 179.27 271.449 191.613C270.971 193.291 269.311 194.378 267.692 193.997C267.119 193.865 266.56 193.565 266.182 193.1C264.238 190.916 262.207 188.848 259.997 186.943C258.731 185.87 256.815 186.106 255.707 187.429C255.534 187.658 255.361 187.888 255.225 188.144C251.252 196.473 246.336 209.259 235.685 231.625C235.673 231.649 235.665 231.676 235.661 231.703C235.366 233.39 233.832 234.603 232.182 234.431C231.486 234.386 230.856 234.032 230.341 233.524C226.716 229.417 222.84 225.537 218.736 221.908C217.47 220.834 215.584 221.032 214.447 222.393C214.184 222.668 213.999 223.058 213.842 223.413C213.837 223.424 213.833 223.435 213.829 223.446C212.87 226.217 208.514 251.562 205.473 255.874C202.202 260.514 191.617 246.303 184.578 250.056C181.374 251.764 168.874 284.618 168.874 291.762C168.875 293.716 443.12 394.221 450.077 395.807ZM266.199 154.614C265.586 153.838 264.929 153.12 264.177 152.464C263.731 152.039 263.294 151.665 262.827 151.268C263.172 150.809 263.486 150.327 263.768 149.827C264.267 149.037 264.682 148.231 265.006 147.355C265.13 147 264.932 146.627 264.614 146.477C264.387 146.396 264.148 146.395 263.937 146.549C263.185 147.102 262.524 147.725 261.925 148.394C261.55 148.828 261.175 149.263 260.822 149.668C260.425 149.369 260.006 149.098 259.587 148.828C258.749 148.287 257.899 147.825 256.984 147.45C256.614 147.306 256.246 147.477 256.114 147.78C256.046 147.997 256.061 148.233 256.231 148.451C256.845 149.226 257.523 149.917 258.275 150.572C258.651 150.9 259.057 151.251 259.454 151.55L258.707 152.734C258.239 153.546 257.823 154.353 257.499 155.228C257.422 155.394 257.48 155.572 257.589 155.745C257.791 155.986 258.122 156.056 258.355 155.873C259.107 155.32 259.798 154.72 260.419 154.022C260.729 153.674 261.07 153.349 261.35 152.977C261.861 153.317 262.371 153.656 262.903 153.967C263.763 154.48 264.613 154.941 265.528 155.317C265.816 155.444 266.132 155.279 266.221 155.033C266.366 154.964 266.33 154.758 266.199 154.614ZM170.262 231.252C169.569 230.311 168.818 229.446 167.946 228.669C167.431 228.162 166.923 227.719 166.379 227.25C166.841 226.636 167.267 225.996 167.654 225.333C168.331 224.285 168.908 223.221 169.377 222.076C169.558 221.613 169.344 221.152 168.965 220.986C168.692 220.901 168.398 220.919 168.125 221.133C167.155 221.901 166.292 222.749 165.501 223.651C165.004 224.236 164.508 224.821 164.04 225.368C163.575 225.018 163.081 224.706 162.587 224.394C161.6 223.769 160.59 223.249 159.494 222.843C159.05 222.688 158.583 222.936 158.395 223.334C158.294 223.618 158.293 223.916 158.486 224.182C159.179 225.123 159.958 225.95 160.831 226.727C161.267 227.115 161.739 227.531 162.205 227.881L161.189 229.453C160.548 230.529 159.971 231.593 159.501 232.737C159.393 232.956 159.45 233.178 159.571 233.389C159.8 233.682 160.201 233.744 160.503 233.492C161.473 232.724 162.372 231.903 163.192 230.963C163.602 230.492 164.048 230.049 164.423 229.552C165.024 229.944 165.625 230.337 166.255 230.692C167.272 231.278 168.281 231.798 169.377 232.204C169.721 232.343 170.124 232.107 170.253 231.785C170.44 231.686 170.412 231.425 170.262 231.252ZM183.917 171.097C183.81 171.377 184.021 171.716 184.295 171.832C184.482 171.928 184.667 171.888 184.842 171.794C185.613 171.25 186.319 170.656 186.947 169.959L187.889 168.914C188.439 169.283 188.989 169.653 189.56 169.993C190.484 170.554 191.396 171.06 192.373 171.481C192.56 171.577 192.778 171.561 192.919 171.443C193.158 171.262 193.199 170.933 192.979 170.677C192.304 169.854 191.587 169.089 190.771 168.385C190.286 167.93 189.812 167.528 189.306 167.101C189.653 166.639 189.967 166.154 190.244 165.648C190.741 164.851 191.149 164.034 191.458 163.142C191.576 162.78 191.353 162.388 190.991 162.251C190.75 162.159 190.498 162.149 190.335 162.296C189.564 162.84 188.891 163.459 188.263 164.156C187.884 164.59 187.527 164.996 187.148 165.431C186.718 165.108 186.267 164.813 185.816 164.519C184.915 163.93 184.002 163.423 183.026 163.002C182.631 162.839 182.249 163.002 182.121 163.31C182.057 163.533 182.081 163.775 182.269 164.007C182.944 164.83 183.683 165.566 184.498 166.27C184.906 166.622 185.346 166.999 185.776 167.322L185.032 168.517C184.635 169.388 184.259 170.23 183.917 171.097Z" fill="#FFB400"/>
<path d="M232.005 210.573C231.312 209.632 230.562 208.767 229.689 207.99C229.175 207.483 228.667 207.04 228.123 206.571C228.585 205.957 229.01 205.317 229.398 204.654C230.075 203.606 230.652 202.542 231.121 201.397C231.302 200.934 231.088 200.473 230.708 200.307C230.436 200.222 230.142 200.24 229.869 200.454C228.899 201.222 228.036 202.07 227.216 203.011C226.719 203.596 226.223 204.181 225.755 204.728C225.29 204.378 224.796 204.065 224.302 203.753C223.314 203.129 222.305 202.609 221.209 202.203C220.764 202.048 220.298 202.296 220.146 202.721C220.045 203.004 220.044 203.303 220.23 203.503C220.923 204.444 221.703 205.271 222.575 206.048C223.012 206.437 223.483 206.852 223.949 207.202L222.933 208.775C222.292 209.85 221.715 210.914 221.245 212.059C221.087 212.419 221.258 212.787 221.601 212.926C221.809 213.023 222.067 212.978 222.247 212.814C223.217 212.046 224.116 211.224 224.936 210.284C225.346 209.814 225.792 209.37 226.167 208.873C226.768 209.266 227.369 209.659 227.999 210.014C229.016 210.599 230.025 211.12 231.122 211.526C231.329 211.622 231.587 211.577 231.767 211.413C232.154 211.344 232.205 210.903 232.005 210.573ZM312.804 87.2492C312.055 86.0853 311.183 85.0094 310.218 83.9828C309.739 83.5022 309.26 83.0216 308.716 82.5523C309.141 81.9134 309.537 81.3127 309.926 80.647C310.711 79.3806 311.325 78.0444 311.838 76.693C311.961 76.3061 311.919 75.9149 311.719 75.5848C311.362 75.0163 310.588 74.8532 309.978 75.2917C308.785 76.1313 307.706 77.1174 306.706 78.2221C306.203 78.7418 305.706 79.3269 305.238 79.8739L303.864 79.0187C302.669 78.2983 301.394 77.7577 300.098 77.3205C299.452 77.1345 298.706 77.531 298.482 78.2011C298.359 78.5879 298.401 78.9791 298.6 79.3093C299.35 80.4732 300.25 81.511 301.273 82.4609C301.709 82.8497 302.11 83.2111 302.546 83.5994C302.237 84.0853 301.927 84.5713 301.653 85.0841C300.903 86.3774 300.29 87.7136 299.848 89.1192C299.747 89.4025 299.782 89.7288 299.939 89.9666C300.253 90.4428 300.855 90.5366 301.351 90.2509C302.544 89.4113 303.694 88.4794 304.73 87.4015C305.147 86.9967 305.557 86.5263 305.938 86.0941C306.539 86.4868 307.169 86.8414 307.8 87.1959C309.024 87.8782 310.299 88.4189 311.653 88.7793C312.197 88.9498 312.786 88.6142 312.953 88.0204C313.032 87.8401 312.997 87.5144 312.804 87.2492ZM483.425 79.4578C482.676 78.2939 481.833 77.1794 480.839 76.1914C480.36 75.7108 479.881 75.2302 479.337 74.7609C479.762 74.122 480.158 73.5213 480.547 72.8556C481.332 71.5892 481.946 70.253 482.459 68.9016C482.582 68.5148 482.54 68.1235 482.34 67.7934C481.983 67.2249 481.209 67.0618 480.598 67.5004C479.406 68.3399 478.327 69.326 477.327 70.4307C476.824 70.9504 476.327 71.5355 475.859 72.0825L474.485 71.2273C473.289 70.5069 472.014 69.9663 470.718 69.5292C470.073 69.3431 469.326 69.7397 469.102 70.4097C468.979 70.7965 469.021 71.1877 469.221 71.5179C469.97 72.6818 470.871 73.7196 471.894 74.6695C472.33 75.0578 472.731 75.4197 473.167 75.808C472.857 76.2939 472.547 76.7799 472.273 77.2927C471.524 78.586 470.91 79.9222 470.469 81.3278C470.266 81.8944 470.559 82.4741 471.132 82.6065C471.404 82.6914 471.727 82.6353 471.971 82.4595C473.164 81.6199 474.314 80.688 475.35 79.6102C475.767 79.2053 476.177 78.7349 476.559 78.3027C477.16 78.6954 477.79 79.05 478.42 79.4045C479.644 80.0868 480.919 80.6275 482.273 80.9879C482.818 81.1584 483.407 80.8228 483.574 80.229C483.581 79.995 483.582 79.6961 483.425 79.4578ZM551.013 369.192C550.263 368.028 549.421 366.914 548.426 365.926C547.947 365.445 547.468 364.964 546.925 364.495C547.35 363.856 547.746 363.255 548.135 362.59C548.92 361.323 549.533 359.987 550.047 358.636C550.271 357.966 549.929 357.229 549.284 357.043C548.911 356.942 548.524 357.009 548.186 357.235C546.993 358.074 545.915 359.06 544.915 360.165C544.412 360.685 543.915 361.27 543.447 361.817L542.073 360.961C540.878 360.241 539.603 359.7 538.306 359.263C537.934 359.163 537.546 359.23 537.208 359.455C536.626 359.856 536.416 360.657 536.809 361.252C537.559 362.416 538.459 363.454 539.482 364.404C539.918 364.792 540.319 365.154 540.755 365.542C540.445 366.028 540.135 366.514 539.861 367.027C539.112 368.32 538.499 369.656 538.057 371.062C537.956 371.345 537.991 371.672 538.148 371.909C538.221 372.021 538.316 372.118 538.427 372.193C538.538 372.268 538.663 372.32 538.794 372.347C538.926 372.373 539.061 372.373 539.192 372.347C539.324 372.321 539.449 372.269 539.56 372.194C540.753 371.354 541.903 370.422 542.938 369.344C543.355 368.939 543.765 368.469 544.147 368.037C544.748 368.43 545.378 368.784 546.008 369.139C547.232 369.821 548.507 370.362 549.862 370.722C550.134 370.807 550.457 370.751 550.701 370.575C551.167 370.327 551.327 369.668 551.013 369.192ZM357.508 97.6354C357.881 97.736 358.283 97.4996 358.37 97.086C358.414 96.8789 358.393 96.6835 358.315 96.5644C357.872 95.8117 357.336 95.1085 356.714 94.5199L355.835 93.6779C356.094 93.3336 356.317 92.9624 356.57 92.5532C357.045 91.7727 357.449 90.938 357.717 90.0609C357.862 89.5705 357.648 89.11 357.175 88.9937C357.055 88.9655 356.929 88.962 356.807 88.9834C356.685 89.0048 356.569 89.0507 356.465 89.1183C355.696 89.6179 355.006 90.2372 354.387 90.9097C354.092 91.2272 353.797 91.5441 353.538 91.8885C353.287 91.6999 353.008 91.5495 352.765 91.4259C352.028 90.9903 351.233 90.6318 350.387 90.4145C349.914 90.2982 349.447 90.5458 349.303 91.0362C349.267 91.1547 349.255 91.2793 349.268 91.4025C349.281 91.5257 349.319 91.645 349.379 91.7532C349.851 92.4677 350.386 93.171 351.008 93.759C351.23 93.9856 351.516 94.2015 351.738 94.4281C351.572 94.7226 351.371 94.9907 351.24 95.3121C350.8 96.1194 350.432 96.981 350.129 97.8313C350.085 98.0383 350.107 98.2337 350.185 98.3529C350.384 98.683 350.786 98.7455 351.13 98.5858C351.899 98.0862 352.625 97.4938 353.244 96.8213L353.956 96.0989C354.306 96.3031 354.693 96.5346 355.044 96.7387C355.804 97.0703 356.627 97.3912 357.508 97.6354ZM607.706 203.081C608.148 203.833 608.712 204.499 609.335 205.087C609.556 205.314 609.842 205.529 610.064 205.756C609.898 206.05 609.697 206.318 609.566 206.64C609.126 207.447 608.758 208.309 608.455 209.159C608.332 209.546 608.568 209.903 608.94 210.004C609.141 210.035 609.335 210.001 609.457 209.913C610.226 209.414 610.952 208.821 611.57 208.149L612.282 207.427C612.633 207.631 613.02 207.862 613.37 208.066C614.137 208.463 614.96 208.784 615.777 209.04C616.149 209.14 616.552 208.904 616.675 208.517C616.719 208.32 616.697 208.114 616.612 207.931C616.169 207.178 615.634 206.475 615.012 205.886L614.132 205.044C614.391 204.7 614.615 204.329 614.867 203.919C615.343 203.139 615.747 202.304 616.015 201.427C616.051 201.309 616.062 201.184 616.049 201.061C616.036 200.938 615.998 200.818 615.938 200.71C615.695 200.288 615.194 200.21 614.763 200.484C613.994 200.984 613.303 201.603 612.685 202.275C612.39 202.593 612.095 202.91 611.836 203.254C611.585 203.066 611.306 202.915 611.063 202.792C610.325 202.356 609.53 201.998 608.685 201.78C608.564 201.752 608.439 201.748 608.317 201.77C608.195 201.791 608.078 201.837 607.975 201.905C607.572 202.141 607.434 202.696 607.706 203.081ZM497.814 390.378C498.256 391.131 498.821 391.796 499.443 392.384C499.665 392.611 499.951 392.826 500.172 393.053C500.006 393.348 499.805 393.616 499.639 393.91C499.199 394.718 498.831 395.579 498.528 396.429C498.405 396.816 498.641 397.173 499.013 397.274C499.214 397.306 499.408 397.272 499.53 397.184C500.298 396.684 501.025 396.092 501.643 395.419L502.355 394.697C502.706 394.901 503.093 395.133 503.443 395.337C504.209 395.734 505.033 396.055 505.85 396.31C506.05 396.341 506.244 396.308 506.366 396.22C506.704 395.995 506.791 395.581 506.656 395.239C506.213 394.487 505.678 393.783 505.056 393.195L504.176 392.353C504.435 392.008 504.659 391.637 504.911 391.228C505.387 390.447 505.79 389.613 506.059 388.736C506.204 388.245 505.961 387.823 505.517 387.668C505.396 387.64 505.271 387.637 505.149 387.658C505.026 387.68 504.91 387.725 504.806 387.793C504.037 388.293 503.347 388.912 502.728 389.584C502.433 389.902 502.138 390.219 501.879 390.563C501.629 390.375 501.349 390.224 501.106 390.101C500.369 389.665 499.574 389.306 498.728 389.089C498.255 388.973 497.825 389.247 497.644 389.711C497.672 389.971 497.693 390.167 497.814 390.378ZM602.989 330.097C603.432 330.85 603.996 331.515 604.618 332.103C604.84 332.33 605.126 332.546 605.348 332.772C605.182 333.067 604.981 333.335 604.815 333.629C604.375 334.437 604.007 335.298 603.703 336.148C603.58 336.535 603.816 336.892 604.189 336.993C604.389 337.025 604.583 336.991 604.705 336.903C605.474 336.403 606.2 335.811 606.819 335.138L607.531 334.416C607.881 334.62 608.268 334.852 608.619 335.056C609.385 335.453 610.209 335.774 611.025 336.029C611.226 336.061 611.42 336.027 611.542 335.939C611.88 335.714 611.966 335.3 611.831 334.958C611.389 334.206 610.853 333.502 610.231 332.914L609.352 332.072C609.611 331.728 609.834 331.356 610.086 330.947C610.562 330.167 610.966 329.332 611.234 328.455C611.379 327.964 611.136 327.542 610.692 327.388C610.571 327.359 610.446 327.356 610.324 327.377C610.202 327.399 610.085 327.445 609.982 327.512C609.213 328.012 608.522 328.631 607.904 329.304C607.609 329.621 607.314 329.938 607.055 330.282C606.804 330.094 606.525 329.943 606.282 329.82C605.544 329.384 604.749 329.025 603.904 328.808C603.431 328.692 603 328.967 602.819 329.43C602.847 329.691 602.868 329.886 602.989 330.097ZM533.593 138.816C533.151 138.063 532.615 137.36 531.993 136.771L531.114 135.929C531.373 135.585 531.596 135.214 531.849 134.804C532.324 134.024 532.728 133.189 532.996 132.312C533.141 131.822 532.899 131.399 532.454 131.245C532.334 131.217 532.208 131.213 532.086 131.235C531.964 131.256 531.848 131.302 531.744 131.369C530.975 131.869 530.285 132.488 529.666 133.161C529.371 133.478 529.076 133.795 528.817 134.14C528.566 133.951 528.287 133.801 528.044 133.677C527.306 133.242 526.511 132.883 525.666 132.666C525.193 132.549 524.762 132.824 524.581 133.287C524.545 133.406 524.533 133.531 524.546 133.654C524.56 133.777 524.598 133.896 524.658 134.004C525.1 134.757 525.665 135.422 526.287 136.01C526.509 136.237 526.795 136.453 527.016 136.679C526.851 136.974 526.649 137.242 526.483 137.536C526.043 138.344 525.675 139.205 525.372 140.056C525.249 140.442 525.485 140.799 525.857 140.901C526.058 140.932 526.252 140.898 526.374 140.81C527.142 140.311 527.868 139.718 528.487 139.046L529.199 138.323C529.55 138.527 529.936 138.759 530.287 138.963C531.053 139.36 531.877 139.681 532.694 139.936C532.894 139.968 533.088 139.934 533.21 139.846C533.677 139.598 533.793 139.146 533.593 138.816ZM305.66 145.577C304.91 144.414 304.068 143.299 303.073 142.311C302.594 141.83 302.115 141.35 301.572 140.881C301.997 140.242 302.393 139.641 302.782 138.975C303.538 137.747 304.151 136.411 304.629 135.032C304.853 134.362 304.511 133.625 303.866 133.439C303.494 133.339 303.106 133.406 302.769 133.631C301.576 134.471 300.497 135.457 299.497 136.562C298.965 137.12 298.497 137.666 298.03 138.213L296.655 137.358C295.46 136.638 294.185 136.097 292.889 135.66C292.244 135.474 291.497 135.871 291.273 136.541C291.15 136.927 291.192 137.319 291.391 137.649C292.141 138.813 293.041 139.85 294.064 140.8C294.501 141.189 294.901 141.551 295.337 141.939C295.028 142.425 294.718 142.911 294.444 143.424C293.694 144.717 293.081 146.053 292.64 147.459C292.437 148.025 292.729 148.605 293.303 148.737C293.575 148.822 293.898 148.766 294.142 148.59C295.335 147.751 296.514 146.78 297.521 145.741C297.938 145.336 298.348 144.866 298.729 144.434C299.33 144.826 299.96 145.181 300.591 145.535C301.815 146.218 303.09 146.758 304.444 147.119C304.988 147.289 305.577 146.954 305.744 146.36C305.852 146.142 305.817 145.816 305.66 145.577ZM570.677 278.998C569.928 277.834 569.085 276.72 568.091 275.732C567.612 275.251 567.133 274.771 566.589 274.301C567.014 273.662 567.41 273.062 567.799 272.396C568.584 271.13 569.198 269.793 569.711 268.442C569.935 267.772 569.593 267.035 568.948 266.849C568.576 266.748 568.188 266.816 567.85 267.041C566.658 267.88 565.579 268.866 564.579 269.971C564.076 270.491 563.579 271.076 563.111 271.623L561.737 270.768C560.542 270.047 559.267 269.507 557.942 269.108C557.569 269.007 557.182 269.074 556.844 269.3C556.262 269.701 556.052 270.501 556.444 271.096C557.194 272.26 558.094 273.298 559.118 274.248C559.554 274.637 559.954 274.998 560.391 275.387C560.081 275.872 559.771 276.358 559.497 276.871C558.747 278.165 558.134 279.501 557.693 280.906C557.49 281.473 557.782 282.053 558.356 282.185C558.628 282.27 558.951 282.214 559.195 282.038C560.388 281.198 561.538 280.267 562.574 279.189C562.991 278.784 563.401 278.313 563.782 277.881C564.383 278.274 565.013 278.628 565.644 278.983C566.868 279.665 568.143 280.206 569.497 280.566C570.042 280.737 570.63 280.401 570.797 279.807C570.87 279.562 570.806 279.275 570.677 278.998ZM560.008 212.569C559.258 211.406 558.415 210.291 557.421 209.303C556.942 208.822 556.463 208.342 555.92 207.872C556.344 207.234 556.74 206.633 557.13 205.967C557.915 204.701 558.528 203.365 559.041 202.013C559.265 201.343 558.924 200.606 558.279 200.42C557.906 200.319 557.519 200.387 557.181 200.612C555.988 201.452 554.881 202.476 553.91 203.542C553.406 204.062 552.91 204.647 552.442 205.194L551.068 204.339C549.872 203.619 548.597 203.078 547.301 202.641C546.928 202.54 546.541 202.608 546.203 202.833C545.621 203.234 545.411 204.034 545.804 204.63C546.553 205.793 547.454 206.831 548.477 207.781C548.913 208.169 549.314 208.531 549.75 208.92C549.44 209.406 549.13 209.892 548.856 210.404C548.107 211.698 547.493 213.034 547.052 214.439C546.85 215.006 547.142 215.586 547.715 215.718C547.987 215.803 548.31 215.747 548.554 215.571C549.747 214.732 550.897 213.8 551.933 212.722C552.35 212.317 552.76 211.847 553.142 211.414C553.743 211.807 554.373 212.162 555.003 212.517C556.227 213.199 557.502 213.74 558.856 214.1C559.401 214.27 559.99 213.935 560.157 213.341C560.2 213.133 560.136 212.846 560.008 212.569Z" fill="#FFB400"/>
<path d="M466.381 371.072C465.688 370.131 464.937 369.266 464.065 368.489C463.55 367.981 463.042 367.539 462.498 367.069C462.96 366.456 463.386 365.816 463.773 365.153C464.451 364.105 465.027 363.041 465.496 361.896C465.677 361.432 465.463 360.972 465.084 360.806C464.812 360.721 464.517 360.739 464.244 360.953C463.274 361.72 462.411 362.569 461.591 363.509C461.094 364.095 460.627 364.641 460.13 365.226C459.666 364.876 459.171 364.564 458.678 364.252C457.69 363.628 456.68 363.107 455.584 362.701C455.14 362.546 454.673 362.794 454.486 363.192C454.384 363.476 454.383 363.775 454.576 364.04C455.269 364.981 456.049 365.808 456.921 366.585C457.357 366.973 457.829 367.389 458.295 367.739L457.279 369.312C456.638 370.387 456.061 371.451 455.592 372.596C455.483 372.814 455.54 373.036 455.661 373.248C455.89 373.54 456.291 373.602 456.593 373.35C457.563 372.585 458.474 371.749 459.318 370.848C459.729 370.377 460.174 369.934 460.549 369.437C461.15 369.829 461.751 370.222 462.382 370.577C463.398 371.163 464.408 371.683 465.504 372.089C465.848 372.228 466.25 371.992 466.38 371.67C466.559 371.505 466.531 371.245 466.381 371.072ZM498.329 224.935C497.636 223.994 496.886 223.129 496.013 222.352C495.498 221.845 494.99 221.402 494.447 220.933C494.908 220.319 495.334 219.679 495.721 219.016C496.399 217.968 496.975 216.904 497.445 215.759C497.625 215.296 497.412 214.835 497.032 214.669C496.76 214.584 496.466 214.602 496.193 214.816C495.222 215.584 494.36 216.432 493.539 217.373C493.043 217.958 492.575 218.504 492.079 219.089C491.614 218.739 491.12 218.427 490.626 218.115C489.638 217.491 488.629 216.97 487.533 216.564C487.088 216.41 486.621 216.658 486.434 217.056C486.333 217.339 486.332 217.638 486.525 217.903C487.218 218.844 487.997 219.671 488.869 220.448C489.306 220.836 489.778 221.252 490.243 221.602L489.227 223.175C488.586 224.25 488.01 225.314 487.54 226.459C487.431 226.677 487.489 226.899 487.61 227.111C487.838 227.403 488.24 227.465 488.541 227.213C489.511 226.448 490.422 225.612 491.267 224.711C491.677 224.241 492.123 223.797 492.497 223.3C493.098 223.693 493.699 224.086 494.33 224.44C495.346 225.026 496.356 225.547 497.452 225.952C497.796 226.092 498.198 225.855 498.328 225.533C498.507 225.369 498.479 225.108 498.329 224.935ZM277.186 226.44C276.494 225.499 275.743 224.634 274.87 223.857C274.356 223.349 273.848 222.907 273.304 222.437C273.766 221.824 274.191 221.184 274.579 220.521C275.256 219.473 275.833 218.409 276.302 217.264C276.483 216.8 276.269 216.34 275.889 216.174C275.617 216.089 275.323 216.107 275.05 216.321C274.08 217.089 273.217 217.937 272.397 218.878C271.9 219.463 271.404 220.048 270.936 220.594C270.471 220.244 269.977 219.932 269.483 219.62C268.495 218.996 267.486 218.475 266.39 218.069C265.945 217.914 265.479 218.163 265.291 218.561C265.19 218.844 265.189 219.143 265.382 219.408C266.104 220.311 266.854 221.176 267.727 221.953C268.163 222.341 268.635 222.757 269.1 223.107L268.085 224.68C267.444 225.755 266.867 226.819 266.397 227.964C266.289 228.182 266.346 228.404 266.467 228.616C266.696 228.908 267.097 228.97 267.399 228.718C268.369 227.95 269.268 227.129 270.088 226.189C270.498 225.719 270.944 225.275 271.318 224.778C271.919 225.171 272.521 225.564 273.151 225.918C274.168 226.504 275.177 227.024 276.273 227.43C276.617 227.57 277.019 227.333 277.149 227.011C277.365 226.874 277.337 226.613 277.186 226.44ZM207.218 274.926C206.525 273.985 205.774 273.12 204.902 272.343C204.387 271.836 203.879 271.393 203.335 270.924C203.797 270.31 204.223 269.671 204.61 269.008C205.287 267.959 205.864 266.895 206.333 265.75C206.514 265.287 206.3 264.826 205.921 264.66C205.648 264.575 205.354 264.593 205.081 264.807C204.111 265.575 203.248 266.423 202.428 267.364C201.931 267.949 201.435 268.534 200.967 269.081C200.502 268.731 200.008 268.419 199.515 268.106C198.527 267.482 197.517 266.962 196.421 266.556C195.977 266.401 195.51 266.649 195.322 267.047C195.221 267.33 195.22 267.629 195.413 267.895C196.135 268.798 196.886 269.662 197.758 270.44C198.195 270.828 198.666 271.243 199.132 271.594L198.116 273.166C197.475 274.242 196.898 275.305 196.428 276.45C196.32 276.669 196.377 276.891 196.498 277.102C196.727 277.394 197.128 277.457 197.43 277.205C198.4 276.437 199.299 275.616 200.119 274.675C200.529 274.205 200.975 273.762 201.35 273.264C201.951 273.657 202.552 274.05 203.182 274.405C204.199 274.99 205.208 275.511 206.305 275.917C206.648 276.056 207.051 275.82 207.181 275.498C207.396 275.36 207.368 275.099 207.218 274.926ZM336.381 169.214C335.688 168.273 334.937 167.408 334.064 166.631C333.55 166.124 333.042 165.681 332.498 165.212C332.96 164.598 333.385 163.958 333.773 163.296C334.45 162.247 335.027 161.183 335.496 160.038C335.597 159.755 335.563 159.429 335.405 159.191C335.134 158.807 334.639 158.794 334.273 159.057C333.303 159.825 332.44 160.673 331.619 161.614C331.123 162.199 330.655 162.746 330.159 163.331C329.694 162.98 329.2 162.668 328.706 162.356C327.718 161.732 326.709 161.212 325.613 160.806C325.168 160.651 324.702 160.899 324.514 161.297C324.413 161.58 324.412 161.879 324.605 162.144C325.298 163.085 326.077 163.912 326.95 164.689C327.386 165.078 327.858 165.493 328.323 165.843L327.308 167.416C326.667 168.492 326.09 169.555 325.62 170.7C325.512 170.918 325.54 171.179 325.69 171.352C325.918 171.644 326.32 171.707 326.622 171.455C327.592 170.687 328.491 169.865 329.311 168.925C329.721 168.455 330.167 168.011 330.541 167.514C331.142 167.907 331.744 168.3 332.374 168.655C333.391 169.24 334.4 169.761 335.496 170.167C335.84 170.306 336.214 170.108 336.372 169.748C336.558 169.648 336.53 169.387 336.381 169.214ZM450.121 334.92C449.679 334.167 449.143 333.464 448.521 332.875L447.641 332.033C447.901 331.689 448.124 331.318 448.376 330.908C448.852 330.128 449.256 329.293 449.524 328.416C449.669 327.926 449.455 327.465 448.982 327.349C448.861 327.321 448.736 327.317 448.614 327.339C448.492 327.36 448.375 327.406 448.271 327.474C447.503 327.973 446.812 328.592 446.194 329.265C445.899 329.582 445.604 329.899 445.344 330.244C445.094 330.055 444.815 329.905 444.571 329.781C443.834 329.346 443.039 328.987 442.194 328.77C441.721 328.654 441.254 328.901 441.109 329.391C441.073 329.51 441.061 329.635 441.074 329.758C441.088 329.881 441.126 330 441.186 330.108C441.657 330.823 442.193 331.526 442.815 332.114C443.037 332.341 443.323 332.557 443.544 332.783C443.378 333.078 443.177 333.346 443.047 333.667C442.607 334.475 442.239 335.336 441.936 336.187C441.813 336.573 442.02 336.969 442.421 337.031C442.622 337.063 442.816 337.029 442.938 336.941C443.707 336.441 444.433 335.849 445.051 335.177L445.763 334.454C446.114 334.658 446.501 334.89 446.851 335.094C447.617 335.491 448.441 335.812 449.258 336.067C449.63 336.168 450.033 335.932 450.12 335.518C450.228 335.299 450.171 335.077 450.121 334.92ZM255.945 277.112C255.503 276.359 254.967 275.656 254.345 275.068L253.466 274.226C253.725 273.881 253.948 273.51 254.201 273.101C254.676 272.32 255.08 271.486 255.348 270.609C255.493 270.118 255.25 269.696 254.806 269.541C254.685 269.513 254.56 269.51 254.438 269.531C254.316 269.552 254.2 269.598 254.096 269.666C253.327 270.166 252.637 270.785 252.018 271.457C251.723 271.775 251.428 272.092 251.169 272.436C250.918 272.248 250.639 272.097 250.396 271.974C249.658 271.538 248.863 271.179 248.018 270.962C247.545 270.846 247.078 271.094 246.934 271.584C246.897 271.702 246.886 271.827 246.899 271.95C246.912 272.073 246.95 272.193 247.01 272.301C247.481 273.015 248.017 273.719 248.639 274.307C248.861 274.533 249.147 274.749 249.369 274.976C249.203 275.27 249.002 275.538 248.872 275.86C248.432 276.667 248.064 277.529 247.76 278.379C247.637 278.766 247.844 279.161 248.246 279.224C248.446 279.255 248.64 279.221 248.762 279.133C249.531 278.634 250.257 278.041 250.876 277.369L251.588 276.647C251.938 276.851 252.325 277.082 252.676 277.286C253.442 277.683 254.266 278.004 255.082 278.26C255.455 278.36 255.857 278.124 255.98 277.737C256.052 277.492 256.031 277.296 255.945 277.112ZM491.989 289.619C492.431 290.372 492.996 291.037 493.618 291.625C493.84 291.852 494.126 292.067 494.347 292.294C494.181 292.588 493.98 292.856 493.814 293.151C493.374 293.958 493.006 294.82 492.703 295.67C492.58 296.057 492.787 296.453 493.159 296.553C493.36 296.584 493.554 296.551 493.74 296.452C494.509 295.952 495.235 295.359 495.854 294.687L496.566 293.965C496.916 294.169 497.303 294.4 497.654 294.604C498.42 295.002 499.244 295.322 500.06 295.578C500.433 295.678 500.835 295.442 500.958 295.055C501.003 294.858 500.98 294.652 500.895 294.469C500.453 293.716 499.917 293.013 499.295 292.424L498.415 291.582C498.675 291.238 498.898 290.867 499.15 290.457C499.626 289.677 500.03 288.842 500.298 287.965C500.443 287.475 500.2 287.052 499.756 286.898C499.635 286.87 499.51 286.866 499.388 286.888C499.266 286.909 499.149 286.955 499.045 287.023C498.277 287.522 497.586 288.141 496.968 288.814C496.673 289.131 496.378 289.448 496.118 289.793C495.868 289.604 495.589 289.454 495.345 289.33C494.608 288.895 493.784 288.574 492.968 288.319C492.847 288.291 492.722 288.287 492.6 288.308C492.478 288.33 492.361 288.376 492.257 288.443C491.92 288.668 491.782 289.223 491.989 289.619ZM378.822 159.824C378.073 158.66 377.23 157.546 376.236 156.558C375.757 156.077 375.277 155.596 374.734 155.127C375.159 154.488 375.555 153.888 375.944 153.222C376.729 151.955 377.343 150.619 377.856 149.268C378.08 148.598 377.738 147.861 377.093 147.675C376.72 147.574 376.333 147.641 375.995 147.867C374.802 148.706 373.724 149.692 372.724 150.797C372.192 151.355 371.724 151.902 371.256 152.449L369.882 151.594C368.687 150.873 367.412 150.332 366.086 149.933C365.441 149.747 364.695 150.144 364.471 150.814C364.348 151.201 364.39 151.592 364.589 151.922C365.339 153.086 366.239 154.124 367.262 155.074C367.698 155.463 368.099 155.824 368.535 156.212C368.226 156.698 367.916 157.184 367.642 157.697C366.892 158.99 366.279 160.327 365.837 161.732C365.635 162.299 365.927 162.878 366.501 163.011C366.773 163.096 367.096 163.04 367.34 162.864C368.533 162.024 369.683 161.092 370.719 160.014C371.136 159.61 371.546 159.139 371.927 158.707C372.528 159.1 373.158 159.454 373.789 159.809C375.013 160.491 376.288 161.032 377.642 161.392C377.914 161.477 378.237 161.421 378.481 161.245C378.912 160.97 379.108 160.338 378.822 159.824Z" fill="white"/>
</g>
<g clip-path="url(#clip5_5_942)">
<path d="M111.499 305.618C111.499 305.618 108.584 307.94 108.001 310.842C107.764 312.028 107.428 315.535 107.115 317.211C106.871 318.515 107.097 319.863 107.754 321.017C108.41 322.172 109.455 323.059 110.704 323.521L482.049 459.373C483.541 459.926 485.172 459.984 486.7 459.538C488.228 459.093 489.57 458.169 490.527 456.902C492.49 454.309 494.53 451.108 494.53 449C494.53 444.355 493.947 440.292 485.202 431.004C477.228 422.535 113.831 305.618 113.831 305.618" fill="#00AEE0"/>
<path d="M488.03 449.048L113.789 312.535C110.585 311.366 110.586 306.853 113.79 305.686L169.584 285.36C170.397 285.064 171.289 285.064 172.102 285.36L461.148 390.797C461.961 391.093 462.642 391.667 463.07 392.416L492.473 443.818C494.161 446.771 491.234 450.217 488.03 449.048Z" fill="#04294F"/>
<path d="M489.312 450.501C488.731 450.5 488.153 450.397 487.607 450.197L113.366 313.684C111.416 312.972 110.157 311.176 110.158 309.109C110.158 307.042 111.418 305.247 113.368 304.537L169.161 284.211C170.248 283.816 171.439 283.816 172.525 284.211L461.57 389.648C462.656 390.045 463.565 390.811 464.138 391.811L493.54 443.213C494.568 445.01 494.365 447.19 493.024 448.769C492.07 449.893 490.716 450.501 489.312 450.501ZM170.842 286.362C170.559 286.362 170.276 286.411 170.006 286.509L114.212 306.835C113.035 307.264 112.615 308.292 112.615 309.11C112.615 309.929 113.034 310.956 114.212 311.386L488.453 447.899C489.63 448.328 490.617 447.814 491.149 447.189C491.679 446.564 492.026 445.509 491.405 444.424L462.002 393.022C461.717 392.524 461.265 392.143 460.725 391.946L171.679 286.509C171.411 286.412 171.128 286.362 170.842 286.362Z" fill="#00AEE0"/>
<path d="M140.941 296.793L141.787 294.497L478.568 417.634L477.722 419.931L140.941 296.793Z" fill="#00AEE0"/>
<path d="M183.502 337.109L236.61 308.041L237.794 310.185L184.686 339.253L183.502 337.109ZM297.837 379.676L317.084 339.066L319.306 340.111L300.059 380.721L297.837 379.676ZM395.307 367.602L397.636 366.823L418.141 427.713L415.812 428.491L395.307 367.602Z" fill="#00AEE0"/>
</g>
<g clip-path="url(#clip6_5_942)">
<path d="M549.87 26.3562C549.766 26.4715 549.505 26.4451 549.108 26.2923C548.909 26.216 548.676 26.1081 548.411 25.9702C548.148 25.8309 547.85 25.6642 547.514 25.481C547.146 25.2749 546.782 25.0619 546.422 24.8421C546.025 24.6081 545.59 24.3607 545.134 24.0841C544.681 23.8022 544.178 23.5286 543.66 23.2214C543.145 22.9095 542.583 22.6078 542.003 22.2786C541.429 21.9419 540.802 21.6286 540.168 21.2785C539.852 21.101 539.517 20.9415 539.182 20.7682L538.158 20.2454L537.087 19.7288C536.905 19.6417 536.725 19.55 536.539 19.4643L535.977 19.2094C535.598 19.0393 535.219 18.8595 534.829 18.6879L533.638 18.1792C533.239 18.0009 532.824 17.8461 532.41 17.678C531.994 17.5134 531.578 17.3368 531.147 17.1838L529.85 16.6996L528.516 16.24C526.66 15.6167 524.782 15.0616 522.885 14.5759C520.985 14.1038 519.068 13.7014 517.139 13.3695L515.746 13.1413L514.375 12.9522C513.923 12.8826 513.473 12.8407 513.029 12.7883C512.584 12.7398 512.145 12.6793 511.71 12.6472L510.421 12.5301C509.996 12.4962 509.576 12.4742 509.163 12.4447L508.546 12.4022C508.342 12.3899 508.14 12.3848 507.939 12.3752L506.751 12.322L505.601 12.2963C505.225 12.2903 504.854 12.2717 504.492 12.2781C503.767 12.285 503.067 12.2639 502.402 12.2876C501.735 12.3025 501.097 12.3015 500.496 12.3317C499.894 12.3564 499.322 12.3586 498.789 12.3921C498.256 12.4191 497.756 12.4307 497.296 12.4484C496.837 12.4724 496.414 12.4874 496.032 12.4929C495.648 12.4944 495.307 12.5002 495.009 12.4978C494.711 12.4934 494.455 12.478 494.243 12.4509C493.821 12.3967 493.579 12.2964 493.543 12.1456C493.506 11.9948 493.676 11.8009 494.038 11.5686C494.219 11.4524 494.448 11.3268 494.723 11.1923C495.036 11.0368 495.358 10.8985 495.686 10.778C496.094 10.624 496.505 10.4779 496.918 10.3396C497.373 10.1934 497.872 10.0568 498.409 9.90817C498.946 9.75298 499.528 9.63285 500.146 9.49438C500.763 9.35052 501.421 9.24194 502.114 9.12263C502.806 8.99423 503.537 8.916 504.299 8.81521C504.68 8.76191 505.07 8.73501 505.468 8.69723C505.866 8.6632 506.271 8.62356 506.684 8.59568L507.946 8.53154C508.16 8.52217 508.375 8.50901 508.593 8.50351L509.25 8.49376C509.691 8.48951 510.139 8.47903 510.594 8.48273L511.975 8.51446C512.441 8.52017 512.912 8.55609 513.389 8.58212C513.866 8.61208 514.35 8.63353 514.835 8.6848L516.31 8.8252L517.808 9.01779C519.886 9.31048 521.948 9.71115 523.984 10.2182C526.018 10.738 528.022 11.3632 529.991 12.0913L531.401 12.6325L532.766 13.2085C533.218 13.3937 533.654 13.6044 534.088 13.8041C534.52 14.0077 534.952 14.1993 535.365 14.4158L536.596 15.0427C536.998 15.2551 537.387 15.4769 537.774 15.6901L538.348 16.0104C538.536 16.1184 538.72 16.2323 538.904 16.342L539.984 16.997C540.334 17.2175 540.673 17.4448 541.007 17.6634C541.339 17.8854 541.67 18.0941 541.98 18.3217C542.603 18.7719 543.209 19.1877 543.758 19.629C544.311 20.0626 544.839 20.4706 545.314 20.89C545.792 21.3048 546.247 21.6867 546.647 22.0779C547.049 22.4639 547.424 22.8209 547.755 23.1652C548.053 23.4829 548.345 23.8064 548.631 24.1354C548.863 24.3974 549.081 24.6718 549.283 24.9574C549.461 25.2062 549.603 25.4255 549.708 25.6137C549.916 25.9895 549.974 26.2409 549.87 26.3562ZM577.066 117.282C577.376 117.284 577.65 117.867 577.877 118.946C577.939 119.245 577.993 119.545 578.038 119.847C578.081 120.176 578.101 120.534 578.126 120.919C578.164 121.69 578.221 122.576 578.151 123.545C578.127 124.031 578.097 124.541 578.06 125.072C578.048 125.34 578.002 125.606 577.969 125.881L577.854 126.718L577.728 127.585C577.704 127.731 577.686 127.88 577.658 128.028L577.564 128.473C577.433 129.089 577.298 129.704 577.158 130.318C576.516 132.82 575.573 135.522 574.264 138.212C572.928 140.89 571.36 143.283 569.766 145.317C569.364 145.801 568.959 146.283 568.551 146.762L568.255 147.108C568.155 147.22 568.048 147.326 567.946 147.433L567.335 148.061L566.741 148.662C566.544 148.856 566.361 149.055 566.156 149.227C565.774 149.565 565.389 149.899 565 150.23C564.275 150.875 563.537 151.37 562.903 151.809C562.582 152.024 562.286 152.226 561.999 152.393C561.732 152.54 561.461 152.681 561.187 152.813C560.192 153.29 559.564 153.428 559.373 153.184C559.182 152.939 559.443 152.337 560.058 151.476C560.228 151.241 560.403 151.01 560.585 150.783C560.777 150.531 560.976 150.249 561.201 149.96C561.642 149.373 562.186 148.757 562.72 148.017C563.006 147.639 563.296 147.265 563.59 146.893C563.748 146.705 563.885 146.492 564.036 146.285L564.493 145.651L564.97 145.001C565.05 144.891 565.135 144.783 565.213 144.668L565.445 144.319C565.765 143.838 566.088 143.36 566.415 142.884C567.696 140.893 569.016 138.66 570.233 136.225C571.423 133.777 572.389 131.37 573.188 129.141C573.366 128.592 573.548 128.044 573.735 127.498L573.871 127.101C573.914 126.969 573.948 126.836 573.986 126.705L574.211 125.931L574.436 125.183C574.507 124.937 574.593 124.698 574.647 124.458C574.762 123.999 574.882 123.541 575.007 123.084C575.269 122.209 575.427 121.403 575.623 120.695C575.715 120.341 575.817 120.011 575.901 119.705C575.969 119.423 576.046 119.143 576.129 118.865C576.438 117.853 576.756 117.28 577.066 117.282ZM569.073 29.4405C568.929 29.4978 568.731 29.4161 568.487 29.2129C568.366 29.1111 568.233 28.979 568.089 28.8184C567.947 28.6573 567.793 28.4685 567.619 28.2579C566.948 27.4038 566.061 26.1553 564.94 24.6693C564.668 24.2928 564.355 23.9173 564.05 23.5153C563.739 23.117 563.401 22.7136 563.062 22.2913C562.705 21.8815 562.359 21.4428 561.969 21.0171L561.389 20.3616L560.778 19.7024C559.122 17.93 557.177 16.1114 554.994 14.3778C552.8 12.6574 550.58 11.1885 548.471 9.98977L547.688 9.54873L546.915 9.13661C546.411 8.85653 545.904 8.62166 545.422 8.36951C544.933 8.13799 544.462 7.90338 544.002 7.69343C543.541 7.49015 543.102 7.27273 542.673 7.09574C540.967 6.35061 539.547 5.77851 538.56 5.3246C538.315 5.20406 538.096 5.09785 537.906 4.99744C537.716 4.89546 537.557 4.79665 537.43 4.70199C537.176 4.5125 537.05 4.33872 537.072 4.18508C537.094 4.03162 537.263 3.90552 537.57 3.80695C537.723 3.75777 537.91 3.71539 538.13 3.67978C538.38 3.63833 538.633 3.61362 538.886 3.6058C540.021 3.54076 541.65 3.66067 543.627 4.06427C544.124 4.15599 544.632 4.29465 545.168 4.42724C545.701 4.56623 546.248 4.73721 546.816 4.91337C547.376 5.10987 547.964 5.29766 548.55 5.53861C548.844 5.65602 549.145 5.77155 549.445 5.8987L550.352 6.3006C551.565 6.86514 552.823 7.50591 554.065 8.27316C555.351 9.05936 556.591 9.91965 557.777 10.8497C558.958 11.7875 560.083 12.7933 561.146 13.8618C562.181 14.8918 563.096 15.9658 563.928 17.0151L564.529 17.8035C564.723 18.0659 564.905 18.3318 565.088 18.5907C565.458 19.1045 565.777 19.633 566.099 20.1315C566.402 20.6433 566.696 21.1355 566.955 21.622C567.208 22.1124 567.461 22.5745 567.666 23.0366C568.518 24.8652 569.014 26.4226 569.214 27.5412C569.271 27.8181 569.303 28.0708 569.318 28.294C569.335 28.5165 569.337 28.7086 569.325 28.8689C569.3 29.1897 569.217 29.3833 569.073 29.4405ZM423.361 72.5354C423.51 72.5787 423.6 72.8246 423.635 73.2489C423.653 73.4611 423.658 73.7178 423.649 74.0162C423.639 74.3142 423.618 74.6546 423.6 75.0378C423.578 75.4199 423.545 75.8412 423.501 76.2989C423.463 76.7581 423.43 77.2572 423.38 77.7886C423.324 78.3189 423.297 78.8907 423.247 79.4911C423.191 80.0907 423.164 80.7281 423.12 81.3932C423.068 82.0573 423.059 82.7572 423.021 83.4813C422.999 83.843 423.001 84.2142 422.991 84.5908L422.967 85.7406L422.969 86.93C422.97 87.1313 422.966 87.3338 422.97 87.5382L422.985 88.1559C422.997 88.5705 423.001 88.9908 423.017 89.4166L423.078 90.71C423.091 91.1466 423.133 91.5876 423.162 92.0338C423.195 92.4798 423.218 92.9313 423.268 93.3859L423.397 94.7642L423.565 96.1653C423.814 98.1077 424.133 100.04 424.522 101.959C424.926 103.875 425.399 105.776 425.942 107.658L426.343 109.01L426.771 110.327C426.905 110.764 427.064 111.188 427.21 111.61C427.36 112.031 427.497 112.453 427.658 112.859L428.115 114.071C428.269 114.468 428.433 114.855 428.586 115.24L428.817 115.814C428.895 116.003 428.978 116.187 429.058 116.372L429.527 117.465L430.006 118.511C430.164 118.852 430.309 119.194 430.473 119.517C430.795 120.167 431.081 120.806 431.393 121.395C431.696 121.988 431.974 122.562 432.263 123.091C432.548 123.622 432.799 124.136 433.061 124.6C433.318 125.068 433.546 125.513 433.763 125.92C433.967 126.289 434.164 126.662 434.354 127.038C434.523 127.383 434.676 127.687 434.804 127.957C434.93 128.227 435.028 128.465 435.096 128.667C435.231 129.07 435.246 129.332 435.127 129.43C435.007 129.529 434.759 129.461 434.392 129.236C434.208 129.124 433.995 128.973 433.754 128.784C433.478 128.569 433.213 128.34 432.962 128.097C432.645 127.797 432.335 127.491 432.03 127.179C431.701 126.834 431.36 126.444 430.992 126.025C430.618 125.609 430.256 125.138 429.863 124.642C429.464 124.15 429.079 123.604 428.67 123.033C428.253 122.466 427.864 121.842 427.441 121.2C427.227 120.88 427.033 120.541 426.825 120.199C426.621 119.856 426.409 119.508 426.204 119.149L425.596 118.041C425.494 117.853 425.388 117.664 425.289 117.471L424.994 116.884C424.797 116.489 424.593 116.089 424.398 115.679L423.824 114.422C423.626 113.999 423.453 113.56 423.269 113.119C423.088 112.677 422.896 112.232 422.73 111.773L422.214 110.384L421.734 108.952C421.092 106.954 420.554 104.923 420.122 102.869C419.704 100.813 419.392 98.7355 419.19 96.6464L419.062 95.1411L418.985 93.6615C418.955 93.1739 418.954 92.6898 418.945 92.2121C418.94 91.7342 418.924 91.2623 418.939 90.7956L418.966 89.4146C418.982 88.9605 419.012 88.5127 419.035 88.072L419.074 87.4158C419.089 87.199 419.111 86.9841 419.13 86.7706L419.248 85.5128C419.294 85.1013 419.351 84.6978 419.402 84.302C419.457 83.9063 419.501 83.5176 419.57 83.1393C419.704 82.3824 419.814 81.6553 419.972 80.9692C420.121 80.2822 420.257 79.6287 420.428 79.0185C420.593 78.4075 420.738 77.8311 420.916 77.3014C421.088 76.7706 421.246 76.2779 421.411 75.8302C421.567 75.4231 421.731 75.019 421.902 74.6181C422.037 74.2951 422.189 73.9797 422.358 73.6732C422.504 73.4043 422.639 73.1809 422.763 73.0051C423.011 72.6536 423.212 72.4922 423.361 72.5354ZM417.765 53.9061C417.88 54.011 417.893 54.2249 417.816 54.5327C417.777 54.6866 417.717 54.8638 417.634 55.0628C417.551 55.2609 417.449 55.4818 417.335 55.7305C416.859 56.7066 416.122 58.0487 415.274 59.7056C415.053 60.1144 414.852 60.5601 414.623 61.01C414.4 61.4635 414.185 61.9433 413.952 62.4324C413.739 62.9324 413.495 63.4353 413.282 63.9716L412.945 64.7798L412.618 65.6171C411.745 67.88 410.956 70.4233 410.348 73.1439C409.756 75.8683 409.402 78.5073 409.242 80.9277L409.187 81.825L409.153 82.6999C409.121 83.2761 409.13 83.8349 409.113 84.3784C409.118 84.92 409.113 85.4459 409.124 85.9512C409.142 86.4555 409.138 86.9445 409.166 87.4081C409.239 89.2681 409.343 90.7959 409.364 91.8817C409.363 92.1551 409.363 92.3988 409.355 92.6135C409.346 92.8285 409.327 93.015 409.297 93.1707C409.237 93.4822 409.135 93.6709 408.988 93.7178C408.84 93.7649 408.653 93.6678 408.431 93.4351C408.32 93.3188 408.2 93.1686 408.072 92.9859C407.926 92.7788 407.793 92.5622 407.676 92.3374C407.123 91.3448 406.52 89.8256 406.022 87.8706C405.888 87.3832 405.791 86.8652 405.677 86.3254C405.57 85.7848 405.485 85.2178 405.396 84.6296C405.329 84.0402 405.241 83.4292 405.203 82.7968C405.18 82.4808 405.153 82.1597 405.137 81.8339L405.103 80.8428C405.082 79.5042 405.11 78.0933 405.259 76.6407C405.406 75.1402 405.64 73.6495 405.96 72.1761C406.289 70.7049 406.704 69.254 407.202 67.8309C407.678 66.4503 408.245 65.1583 408.827 63.9527L409.274 63.0677C409.426 62.7791 409.586 62.4992 409.739 62.2221C410.04 61.6646 410.376 61.147 410.685 60.6405C411.013 60.1443 411.328 59.6655 411.653 59.2202C411.984 58.7785 412.289 58.3491 412.616 57.9634C413.89 56.3994 415.076 55.2744 415.995 54.6065C416.196 54.4521 416.407 54.3113 416.627 54.1849C416.82 54.0728 416.992 53.9871 417.141 53.9282C417.441 53.8107 417.651 53.8013 417.765 53.9061ZM522.493 167.447C522.554 167.751 522.065 168.139 521.112 168.584C520.849 168.706 520.582 168.821 520.312 168.928C520.017 169.041 519.692 169.145 519.343 169.257C518.642 169.475 517.84 169.721 516.938 169.908C516.467 170.012 515.995 170.111 515.521 170.206C515.027 170.303 514.509 170.373 513.973 170.455C512.9 170.63 511.746 170.73 510.528 170.832C507.883 171.005 505.228 170.985 502.585 170.771C499.944 170.538 497.324 170.112 494.745 169.497C493.562 169.191 492.441 168.899 491.413 168.547C490.898 168.375 490.399 168.219 489.928 168.04C489.477 167.868 489.028 167.69 488.581 167.508C487.724 167.173 486.974 166.795 486.32 166.464C485.994 166.295 485.692 166.137 485.42 165.976C485.171 165.825 484.928 165.668 484.689 165.503C483.824 164.904 483.407 164.439 483.518 164.149C483.629 163.86 484.255 163.772 485.276 163.855C485.556 163.879 485.836 163.91 486.114 163.95C486.419 163.987 486.75 164.024 487.101 164.075C487.805 164.172 488.589 164.327 489.464 164.456C489.918 164.529 490.371 164.608 490.824 164.691C491.296 164.775 491.791 164.84 492.298 164.927C493.31 165.109 494.4 165.251 495.536 165.432C497.819 165.749 500.324 166.061 502.964 166.293C505.605 166.507 508.127 166.622 510.431 166.693C511.582 166.705 512.68 166.748 513.708 166.738C514.222 166.738 514.722 166.757 515.2 166.753C515.661 166.747 516.121 166.746 516.581 166.75C517.465 166.77 518.264 166.749 518.974 166.772C519.329 166.78 519.661 166.8 519.968 166.814C520.249 166.822 520.53 166.838 520.81 166.862C521.83 166.95 522.432 167.142 522.493 167.447ZM550.544 144.433C541.783 152.664 530.022 157.286 517.809 159.021C477.129 164.8 437.931 134.859 432.8 94.1448C430.635 76.9652 434.725 59.0854 444.042 44.5013C453.206 30.1553 471.087 22.7096 487.42 20.7362C511.449 17.8331 536.431 27.5384 552.064 46.052C572.888 70.7127 574.895 108.685 557.712 135.78C555.656 139.02 553.242 141.898 550.544 144.433Z" fill="#F04E23"/>
</g>
<defs>
<clipPath id="clip0_5_942">
<rect width="35.6727" height="150.998" fill="white" transform="translate(346.465 380.183)"/>
</clipPath>
<clipPath id="clip1_5_942">
<rect width="18.0807" height="134.872" fill="white" transform="translate(344.021 388.001)"/>
</clipPath>
<clipPath id="clip2_5_942">
<rect width="267.301" height="371.387" fill="white" transform="translate(186.182 356.238)"/>
</clipPath>
<clipPath id="clip3_5_942">
<rect width="26.8767" height="131.94" fill="white" transform="translate(244.333 346.465)"/>
</clipPath>
<clipPath id="clip4_5_942">
<rect width="458.369" height="341.578" fill="white" transform="translate(158.328 55.708)"/>
</clipPath>
<clipPath id="clip5_5_942">
<rect width="387.513" height="175.92" fill="white" transform="translate(107.018 283.915)"/>
</clipPath>
<clipPath id="clip6_5_942">
<rect width="163.215" height="169.079" fill="white" transform="translate(415.919 181.186) rotate(-96.2256)"/>
</clipPath>
</defs>
</svg>
