<svg width="205" height="205" viewBox="0 0 205 205" fill="none" xmlns="http://www.w3.org/2000/svg">
<path fill-rule="evenodd" clip-rule="evenodd" d="M1.60156 3.20312C2.48608 3.20312 3.20312 2.48608 3.20312 1.60156C3.20312 0.717044 2.48608 0 1.60156 0C0.717044 0 0 0.717044 0 1.60156C0 2.48608 0.717044 3.20312 1.60156 3.20312ZM1.60156 137.734C2.48608 137.734 3.20312 137.017 3.20312 136.133C3.20312 135.248 2.48608 134.531 1.60156 134.531C0.717044 134.531 0 135.248 0 136.133C0 137.017 0.717044 137.734 1.60156 137.734ZM137.734 1.60156C137.734 2.48608 137.017 3.20312 136.133 3.20312C135.248 3.20312 134.531 2.48608 134.531 1.60156C134.531 0.717044 135.248 0 136.133 0C137.017 0 137.734 0.717044 137.734 1.60156ZM136.133 137.734C137.017 137.734 137.734 137.017 137.734 136.133C137.734 135.248 137.017 134.531 136.133 134.531C135.248 134.531 134.531 135.248 134.531 136.133C134.531 137.017 135.248 137.734 136.133 137.734ZM3.20312 68.8672C3.20312 69.7517 2.48608 70.4688 1.60156 70.4688C0.717044 70.4688 0 69.7517 0 68.8672C0 67.9827 0.717044 67.2656 1.60156 67.2656C2.48608 67.2656 3.20312 67.9827 3.20312 68.8672ZM1.60156 205C2.48608 205 3.20312 204.283 3.20312 203.398C3.20312 202.514 2.48608 201.797 1.60156 201.797C0.717044 201.797 0 202.514 0 203.398C0 204.283 0.717044 205 1.60156 205ZM137.734 68.8672C137.734 69.7517 137.017 70.4688 136.133 70.4688C135.248 70.4688 134.531 69.7517 134.531 68.8672C134.531 67.9827 135.248 67.2656 136.133 67.2656C137.017 67.2656 137.734 67.9827 137.734 68.8672ZM136.133 205C137.017 205 137.734 204.283 137.734 203.398C137.734 202.514 137.017 201.797 136.133 201.797C135.248 201.797 134.531 202.514 134.531 203.398C134.531 204.283 135.248 205 136.133 205ZM70.4688 1.60156C70.4688 2.48608 69.7517 3.20312 68.8672 3.20312C67.9827 3.20312 67.2656 2.48608 67.2656 1.60156C67.2656 0.717044 67.9827 0 68.8672 0C69.7517 0 70.4688 0.717044 70.4688 1.60156ZM68.8672 137.734C69.7517 137.734 70.4688 137.017 70.4688 136.133C70.4688 135.248 69.7517 134.531 68.8672 134.531C67.9827 134.531 67.2656 135.248 67.2656 136.133C67.2656 137.017 67.9827 137.734 68.8672 137.734ZM205 1.60156C205 2.48608 204.283 3.20312 203.398 3.20312C202.514 3.20312 201.797 2.48608 201.797 1.60156C201.797 0.717044 202.514 0 203.398 0C204.283 0 205 0.717044 205 1.60156ZM203.398 137.734C204.283 137.734 205 137.017 205 136.133C205 135.248 204.283 134.531 203.398 134.531C202.514 134.531 201.797 135.248 201.797 136.133C201.797 137.017 202.514 137.734 203.398 137.734ZM70.4688 68.8672C70.4688 69.7517 69.7517 70.4688 68.8672 70.4688C67.9827 70.4688 67.2656 69.7517 67.2656 68.8672C67.2656 67.9827 67.9827 67.2656 68.8672 67.2656C69.7517 67.2656 70.4688 67.9827 70.4688 68.8672ZM68.8672 205C69.7517 205 70.4688 204.283 70.4688 203.398C70.4688 202.514 69.7517 201.797 68.8672 201.797C67.9827 201.797 67.2656 202.514 67.2656 203.398C67.2656 204.283 67.9827 205 68.8672 205ZM205 68.8672C205 69.7517 204.283 70.4688 203.398 70.4688C202.514 70.4688 201.797 69.7517 201.797 68.8672C201.797 67.9827 202.514 67.2656 203.398 67.2656C204.283 67.2656 205 67.9827 205 68.8672ZM203.398 205C204.283 205 205 204.283 205 203.398C205 202.514 204.283 201.797 203.398 201.797C202.514 201.797 201.797 202.514 201.797 203.398C201.797 204.283 202.514 205 203.398 205Z" fill="#FF9900"/>
</svg>
