<svg width="128" height="128" viewBox="0 0 128 128" fill="none" xmlns="http://www.w3.org/2000/svg">
<path d="M79.5822 3.98825C79.241 3.98095 78.9035 4.06111 78.602 4.2211C78.3005 4.38109 78.0449 4.61557 77.8596 4.90225C76.3809 7.35951 74.493 9.54594 72.2776 11.3671C69.9004 13.1673 66.9766 14.0955 63.9963 13.996C61.0162 14.0948 58.0925 13.1667 55.7151 11.3671C53.4984 9.54719 51.6104 7.36053 50.1331 4.90225C49.9028 4.55026 49.5671 4.2801 49.1741 4.13041C48.781 3.98071 48.3506 3.95914 47.9445 4.06879C47.5385 4.17843 47.1775 4.41368 46.9132 4.74088C46.6488 5.06808 46.4948 5.47048 46.4729 5.89053C46.4202 8.75759 45.8759 11.5943 44.8636 14.2772C43.7096 17.0259 41.6447 19.2935 39.0158 20.6991C36.4778 22.2744 33.4759 22.9308 30.512 22.5585C27.6836 22.0929 24.9563 21.1441 22.4496 19.7538C22.0737 19.5651 21.6479 19.4996 21.2326 19.5668C20.8174 19.634 20.4339 19.8303 20.1367 20.128C19.8395 20.4256 19.6437 20.8093 19.5771 21.2246C19.5105 21.6399 19.5765 22.0657 19.7658 22.4413C21.1551 24.9527 22.1038 27.6836 22.5705 30.5155C22.9423 33.4762 22.2844 36.4747 20.7072 39.0077C19.3011 41.6353 17.0334 43.6988 14.2852 44.8515C11.5985 45.8647 8.75775 46.409 5.88681 46.4608C5.46541 46.4843 5.06222 46.6404 4.73493 46.9068C4.40763 47.1733 4.17301 47.5364 4.06463 47.9443C3.95625 48.3522 3.97968 48.7839 4.13154 49.1777C4.28341 49.5715 4.55595 49.9071 4.91015 50.1366C7.36489 51.6142 9.54767 53.5023 11.3633 55.7186C13.1691 58.0938 14.1029 61.0178 14.008 64C14.1072 66.9814 13.1791 69.9063 11.3792 72.2851C9.55878 74.5061 7.37076 76.3981 4.91039 77.8789C4.56261 78.1107 4.29619 78.4456 4.14855 78.8367C4.0009 79.2277 3.97945 79.6551 4.08721 80.0589C4.19496 80.4628 4.42651 80.8227 4.74933 81.0882C5.07214 81.3536 5.47001 81.5113 5.88705 81.5391C8.75787 81.5921 11.5984 82.1364 14.2854 83.1484C17.034 84.3024 19.3016 86.3672 20.7073 88.996C22.2836 91.5338 22.9413 94.5356 22.5706 97.5C22.1049 100.328 21.1561 103.056 19.7659 105.562C19.5781 105.938 19.5132 106.363 19.5805 106.777C19.6477 107.192 19.8436 107.575 20.1405 107.871C20.4374 108.168 20.8201 108.364 21.2345 108.431C21.6489 108.499 22.074 108.434 22.4495 108.246C24.9566 106.857 27.6837 105.908 30.5119 105.441C33.4713 105.07 36.4683 105.728 39.0002 107.305C41.6326 108.71 43.7025 110.977 44.8635 113.727C45.8767 116.408 46.4211 119.243 46.4728 122.109C46.4977 122.528 46.6533 122.928 46.9176 123.253C47.182 123.578 47.5418 123.812 47.9462 123.921C48.3506 124.031 48.7793 124.011 49.1717 123.864C49.564 123.717 49.9003 123.45 50.133 123.102C51.6104 120.642 53.4984 118.454 55.715 116.633C58.0925 114.834 61.0164 113.907 63.9962 114.008C66.9807 113.908 69.9093 114.834 72.2931 116.633C74.5097 118.454 76.3978 120.642 77.8751 123.102C78.1055 123.457 78.4424 123.729 78.8376 123.881C79.2327 124.032 79.6657 124.054 80.0742 123.944C80.4827 123.834 80.8458 123.597 81.1111 123.267C81.3764 122.937 81.5304 122.532 81.5508 122.109C81.6051 119.244 82.1494 116.409 83.1602 113.727C84.3984 111.032 86.4423 108.787 89.0101 107.303C91.5778 105.819 94.5429 105.169 97.496 105.441C100.327 105.905 103.058 106.849 105.57 108.234C105.945 108.421 106.368 108.485 106.781 108.419C107.194 108.352 107.576 108.157 107.873 107.863C108.169 107.568 108.366 107.187 108.435 106.774C108.504 106.362 108.442 105.938 108.258 105.562C106.87 103.049 105.921 100.317 105.453 97.4843C105.179 94.5313 105.828 91.566 107.311 88.9979C108.795 86.4298 111.039 84.3859 113.734 83.1483C116.417 82.133 119.254 81.5847 122.121 81.5272C122.539 81.4998 122.938 81.342 123.261 81.076C123.584 80.81 123.816 80.4492 123.923 80.0445C124.031 79.6399 124.009 79.2117 123.86 78.8204C123.711 78.429 123.443 78.0942 123.094 77.8632C120.641 76.3857 118.46 74.4991 116.645 72.2851C114.839 69.9083 113.906 66.9832 114 64C113.906 61.018 114.84 58.0944 116.645 55.7187C118.459 53.498 120.64 51.6046 123.094 50.121C123.442 49.8886 123.709 49.5527 123.856 49.1606C124.003 48.7686 124.024 48.3403 123.915 47.936C123.806 47.5317 123.572 47.1719 123.248 46.9072C122.923 46.6426 122.524 46.4865 122.106 46.4609C119.239 46.4067 116.402 45.8624 113.719 44.8515C110.975 43.6979 108.713 41.6342 107.313 39.0078C105.734 36.475 105.072 33.4775 105.438 30.5156C105.906 27.684 106.854 24.9533 108.242 22.4414C108.432 22.0654 108.499 21.6389 108.432 21.2229C108.366 20.8069 108.17 20.4225 107.872 20.1246C107.574 19.8267 107.189 19.6304 106.773 19.5638C106.357 19.4973 105.931 19.5638 105.555 19.7539C103.048 21.1414 100.323 22.09 97.4963 22.5585C94.5374 22.9307 91.5404 22.2742 89.0081 20.6992C86.376 19.2931 84.3062 17.0261 83.1448 14.2773C82.1334 11.5941 81.5891 8.75752 81.5354 5.89057C81.5108 5.38526 81.2956 4.90805 80.9332 4.55507C80.5707 4.20208 80.088 3.99955 79.5822 3.98825Z" fill="#FE9900"/>
<path d="M63.9962 28.0078C56.8777 28.0105 49.9199 30.1239 44.0024 34.0807C38.085 38.0375 33.4737 43.6601 30.7515 50.2375C28.0294 56.815 27.3186 64.0518 28.7092 71.0332C30.0997 78.0145 33.5291 84.4268 38.5637 89.4592C43.5983 94.4916 50.0121 97.9182 56.994 99.3057C63.9759 100.693 71.2125 99.9793 77.7888 97.2543C84.365 94.5293 89.9856 89.9156 93.9398 83.9964C97.8941 78.0772 100.004 71.1185 100.004 64C99.9966 54.4539 96.2 45.3011 89.4484 38.5524C82.6968 31.8037 73.5423 28.0111 63.9962 28.0078Z" fill="#F7F065"/>
<path d="M63.9961 28.0078C62.6595 28.0124 61.3241 28.091 59.9962 28.2433C68.7967 29.2205 76.9277 33.4087 82.8332 40.0062C88.7387 46.6038 92.0039 55.1474 92.0039 64.0019C92.0039 72.8565 88.7387 81.4001 82.8332 87.9976C76.9277 94.5952 68.7967 98.7834 59.9962 99.7606C64.862 100.307 69.7882 99.8555 74.4733 98.4326C79.1584 97.0097 83.5039 94.6457 87.2438 91.4853C90.9837 88.325 94.0394 84.4347 96.2238 80.0526C98.4083 75.6705 99.6755 70.8887 99.948 65.9999C100.221 61.111 99.4926 56.218 97.8088 51.6203C96.1249 47.0225 93.5206 42.8167 90.1551 39.2602C86.7896 35.7038 82.7338 32.8715 78.2359 30.9367C73.7379 29.0019 68.8925 28.0053 63.9961 28.0078Z" fill="#FCDF54"/>
</svg>
